<?xml version="1.0" encoding="UTF-8" standalone="no"?>
<!DOCTYPE svg PUBLIC "-//W3C//DTD SVG 1.1//EN"
 "http://www.w3.org/Graphics/SVG/1.1/DTD/svg11.dtd">
<!-- Generated by graphviz version 2.40.1 (20161225.0304)
 -->
<!-- Title: Salesforce+ ERD Pages: 1 -->
<svg width="1033pt" height="231pt"
 viewBox="0.00 0.00 1033.04 231.00" xmlns="http://www.w3.org/2000/svg" xmlns:xlink="http://www.w3.org/1999/xlink">
<g id="graph0" class="graph" transform="scale(1 1) rotate(0) translate(4 227)">
<title>Salesforce+ ERD</title>
<polygon fill="#efeffd" stroke="transparent" points="-4,4 -4,-227 1029.0352,-227 1029.0352,4 -4,4"/>
<text text-anchor="middle" x="976.5286" y="-5.8" font-family="Courier,monospace" font-size="9.00" fill="#000000">Salesforce ERD </text>
<!-- ActionPlanTemplateVersion -->
<g id="node1" class="node">
<title>ActionPlanTemplateVersion</title>
<g id="a_node1"><a xlink:href="#" xlink:title=" ActionPlanTemplateVersion ">
<polygon fill="#ffeeff" stroke="transparent" points="266.0352,-17 266.0352,-223 1025.0352,-223 1025.0352,-17 266.0352,-17"/>
<polygon fill="#add8e6" stroke="transparent" points="267.5352,-205 267.5352,-222 1024.5352,-222 1024.5352,-205 267.5352,-205"/>
<polygon fill="none" stroke="#99ccff" points="267.5352,-205 267.5352,-222 1024.5352,-222 1024.5352,-205 267.5352,-205"/>
<text text-anchor="start" x="563.5217" y="-211.2" font-family="Courier,monospace" font-weight="bold" font-size="11.00" fill="#000000">ActionPlanTemplateVersion</text>
<polygon fill="#99ccff" stroke="transparent" points="267.5352,-188 267.5352,-205 933.5352,-205 933.5352,-188 267.5352,-188"/>
<polygon fill="none" stroke="#99ccff" points="267.5352,-188 267.5352,-205 933.5352,-205 933.5352,-188 267.5352,-188"/>
<text text-anchor="start" x="270.5352" y="-194.2" font-family="Courier,monospace" font-size="11.00" fill="#000000"> &#160;&#160;&#160;&#160;&#160;&#160;&#160;&#160;&#160;&#160;&#160;&#160;&#160;&#160;&#160;&#160;&#160;&#160;&#160;&#160;&#160;&#160;&#160;&#160;&#160;&#160;&#160;&#160;&#160;&#160;&#160;&#160;&#160;&#160;&#160;&#160;&#160;&#160;&#160;&#160;&#160;&#160;</text>
<text text-anchor="start" x="554.3813" y="-194.2" font-family="Courier,monospace" font-weight="bold" font-size="11.00" fill="#000000">Id</text>
<text text-anchor="start" x="567.5835" y="-194.2" font-family="Courier,monospace" font-size="11.00" fill="#000000"> &#160;&#160;&#160;&#160;&#160;&#160;&#160;&#160;&#160;&#160;&#160;&#160;&#160;&#160;&#160;&#160;&#160;&#160;&#160;&#160;&#160;&#160;&#160;&#160;&#160;&#160;&#160;&#160;&#160;&#160;&#160;&#160;&#160;&#160;&#160;&#160;&#160;&#160;&#160;</text>
<polygon fill="none" stroke="#99ccff" points="933.5352,-188 933.5352,-205 1024.5352,-205 1024.5352,-188 933.5352,-188"/>
<text text-anchor="start" x="959.2319" y="-193.2" font-family="Courier,monospace" font-size="11.00" fill="#000000">id(18)</text>
<polygon fill="none" stroke="#99ccff" points="267.5352,-171 267.5352,-188 933.5352,-188 933.5352,-171 267.5352,-171"/>
<text text-anchor="start" x="270.5352" y="-176.2" font-family="Courier,monospace" font-size="11.00" fill="#000000"> &#160;&#160;&#160;&#160;&#160;&#160;&#160;&#160;&#160;&#160;&#160;&#160;&#160;&#160;&#160;&#160;&#160;&#160;&#160;&#160;&#160;&#160;&#160;&#160;&#160;&#160;&#160;&#160;&#160;&#160;&#160;&#160;&#160;&#160;&#160;&#160;&#160;&#160;&#160;&#160;IsDeleted &#160;&#160;&#160;&#160;&#160;&#160;&#160;&#160;&#160;&#160;&#160;&#160;&#160;&#160;&#160;&#160;&#160;&#160;&#160;&#160;&#160;&#160;&#160;&#160;&#160;&#160;&#160;&#160;&#160;&#160;&#160;&#160;&#160;&#160;&#160;&#160;&#160;&#160;</text>
<polygon fill="none" stroke="#99ccff" points="933.5352,-171 933.5352,-188 1024.5352,-188 1024.5352,-171 933.5352,-171"/>
<text text-anchor="start" x="955.9314" y="-176.2" font-family="Courier,monospace" font-size="11.00" fill="#000000">boolean</text>
<polygon fill="none" stroke="#99ccff" points="267.5352,-154 267.5352,-171 933.5352,-171 933.5352,-154 267.5352,-154"/>
<text text-anchor="start" x="270.5352" y="-159.2" font-family="Courier,monospace" font-size="11.00" fill="#000000"> &#160;&#160;&#160;&#160;&#160;&#160;&#160;&#160;&#160;&#160;&#160;&#160;&#160;&#160;&#160;&#160;&#160;&#160;&#160;&#160;&#160;&#160;&#160;&#160;&#160;&#160;&#160;&#160;&#160;&#160;&#160;&#160;&#160;&#160;&#160;&#160;&#160;&#160;&#160;&#160;Name &#160;&#160;&#160;&#160;&#160;&#160;&#160;&#160;&#160;&#160;&#160;&#160;&#160;&#160;&#160;&#160;&#160;&#160;&#160;&#160;&#160;&#160;&#160;&#160;&#160;&#160;&#160;&#160;&#160;&#160;&#160;&#160;&#160;&#160;&#160;&#160;&#160;&#160;</text>
<polygon fill="none" stroke="#99ccff" points="933.5352,-154 933.5352,-171 1024.5352,-171 1024.5352,-154 933.5352,-154"/>
<text text-anchor="start" x="942.7292" y="-159.2" font-family="Courier,monospace" font-size="11.00" fill="#000000">string(255)</text>
<polygon fill="none" stroke="#99ccff" points="267.5352,-137 267.5352,-154 933.5352,-154 933.5352,-137 267.5352,-137"/>
<text text-anchor="start" x="270.5352" y="-142.2" font-family="Courier,monospace" font-size="11.00" fill="#000000"> &#160;&#160;&#160;&#160;&#160;&#160;&#160;&#160;&#160;&#160;&#160;&#160;&#160;&#160;&#160;&#160;&#160;&#160;&#160;&#160;&#160;&#160;&#160;&#160;&#160;&#160;&#160;&#160;&#160;&#160;&#160;&#160;&#160;&#160;&#160;&#160;&#160;&#160;&#160;&#160;LastModifiedById &#160;&#160;&#160;&#160;&#160;&#160;&#160;&#160;&#160;&#160;&#160;&#160;&#160;&#160;&#160;&#160;&#160;&#160;&#160;&#160;&#160;&#160;&#160;&#160;&#160;&#160;&#160;&#160;&#160;&#160;&#160;&#160;&#160;&#160;&#160;&#160;&#160;&#160;</text>
<polygon fill="none" stroke="#99ccff" points="933.5352,-137 933.5352,-154 1024.5352,-154 1024.5352,-137 933.5352,-137"/>
<text text-anchor="start" x="936.1282" y="-142.2" font-family="Courier,monospace" font-size="11.00" fill="#000000">reference(18)</text>
<polygon fill="none" stroke="#99ccff" points="267.5352,-120 267.5352,-137 933.5352,-137 933.5352,-120 267.5352,-120"/>
<text text-anchor="start" x="270.5352" y="-125.2" font-family="Courier,monospace" font-size="11.00" fill="#000000"> &#160;&#160;&#160;&#160;&#160;&#160;&#160;&#160;&#160;&#160;&#160;&#160;&#160;&#160;&#160;&#160;&#160;&#160;&#160;&#160;&#160;&#160;&#160;&#160;&#160;&#160;&#160;&#160;&#160;&#160;&#160;&#160;&#160;&#160;&#160;&#160;&#160;&#160;&#160;&#160;LastViewedDate &#160;&#160;&#160;&#160;&#160;&#160;&#160;&#160;&#160;&#160;&#160;&#160;&#160;&#160;&#160;&#160;&#160;&#160;&#160;&#160;&#160;&#160;&#160;&#160;&#160;&#160;&#160;&#160;&#160;&#160;&#160;&#160;&#160;&#160;&#160;&#160;&#160;&#160;</text>
<polygon fill="none" stroke="#99ccff" points="933.5352,-120 933.5352,-137 1024.5352,-137 1024.5352,-120 933.5352,-120"/>
<text text-anchor="start" x="952.6309" y="-125.2" font-family="Courier,monospace" font-size="11.00" fill="#000000">datetime</text>
<polygon fill="none" stroke="#99ccff" points="267.5352,-103 267.5352,-120 933.5352,-120 933.5352,-103 267.5352,-103"/>
<text text-anchor="start" x="270.5352" y="-108.2" font-family="Courier,monospace" font-size="11.00" fill="#000000"> &#160;&#160;&#160;&#160;&#160;&#160;&#160;&#160;&#160;&#160;&#160;&#160;&#160;&#160;&#160;&#160;&#160;&#160;&#160;&#160;&#160;&#160;&#160;&#160;&#160;&#160;&#160;&#160;&#160;&#160;&#160;&#160;&#160;&#160;&#160;&#160;&#160;&#160;&#160;&#160;LastReferencedDate &#160;&#160;&#160;&#160;&#160;&#160;&#160;&#160;&#160;&#160;&#160;&#160;&#160;&#160;&#160;&#160;&#160;&#160;&#160;&#160;&#160;&#160;&#160;&#160;&#160;&#160;&#160;&#160;&#160;&#160;&#160;&#160;&#160;&#160;&#160;&#160;&#160;&#160;</text>
<polygon fill="none" stroke="#99ccff" points="933.5352,-103 933.5352,-120 1024.5352,-120 1024.5352,-103 933.5352,-103"/>
<text text-anchor="start" x="952.6309" y="-108.2" font-family="Courier,monospace" font-size="11.00" fill="#000000">datetime</text>
<polygon fill="none" stroke="#99ccff" points="267.5352,-86 267.5352,-103 933.5352,-103 933.5352,-86 267.5352,-86"/>
<text text-anchor="start" x="270.4814" y="-91.2" font-family="Courier,monospace" font-size="11.00" fill="#000000"> &#160;&#160;&#160;&#160;&#160;&#160;&#160;&#160;&#160;&#160;&#160;&#160;&#160;&#160;&#160;&#160;&#160;&#160;&#160;&#160;&#160;&#160;&#160;&#160;&#160;&#160;&#160;&#160;&#160;&#160;&#160;&#160;&#160;&#160;&#160;&#160;&#160;&#160;&#160;&#160;ActionPlanTemplateId &#160;&#160;&#160;&#160;&#160;&#160;&#160;&#160;&#160;&#160;&#160;&#160;&#160;&#160;&#160;&#160;&#160;&#160;&#160;&#160;&#160;&#160;&#160;&#160;&#160;&#160;&#160;&#160;&#160;&#160;&#160;&#160;&#160;&#160;&#160;&#160;&#160;&#160;</text>
<polygon fill="none" stroke="#99ccff" points="933.5352,-86 933.5352,-103 1024.5352,-103 1024.5352,-86 933.5352,-86"/>
<text text-anchor="start" x="936.1282" y="-91.2" font-family="Courier,monospace" font-size="11.00" fill="#000000">reference(18)</text>
<polygon fill="none" stroke="#99ccff" points="267.5352,-69 267.5352,-86 933.5352,-86 933.5352,-69 267.5352,-69"/>
<text text-anchor="start" x="270.5352" y="-74.2" font-family="Courier,monospace" font-size="11.00" fill="#000000"> &#160;&#160;&#160;&#160;&#160;&#160;&#160;&#160;&#160;&#160;&#160;&#160;&#160;&#160;&#160;&#160;&#160;&#160;&#160;&#160;&#160;&#160;&#160;&#160;&#160;&#160;&#160;&#160;&#160;&#160;&#160;&#160;&#160;&#160;&#160;&#160;&#160;&#160;&#160;&#160;Version &#160;&#160;&#160;&#160;&#160;&#160;&#160;&#160;&#160;&#160;&#160;&#160;&#160;&#160;&#160;&#160;&#160;&#160;&#160;&#160;&#160;&#160;&#160;&#160;&#160;&#160;&#160;&#160;&#160;&#160;&#160;&#160;&#160;&#160;&#160;&#160;&#160;&#160;</text>
<polygon fill="none" stroke="#99ccff" points="933.5352,-69 933.5352,-86 1024.5352,-86 1024.5352,-69 933.5352,-69"/>
<text text-anchor="start" x="969.1335" y="-74.2" font-family="Courier,monospace" font-size="11.00" fill="#000000">int</text>
<polygon fill="none" stroke="#99ccff" points="267.5352,-52 267.5352,-69 933.5352,-69 933.5352,-52 267.5352,-52"/>
<text text-anchor="start" x="270.5352" y="-57.2" font-family="Courier,monospace" font-size="11.00" fill="#000000"> &#160;&#160;&#160;&#160;&#160;&#160;&#160;&#160;&#160;&#160;&#160;&#160;&#160;&#160;&#160;&#160;&#160;&#160;&#160;&#160;&#160;&#160;&#160;&#160;&#160;&#160;&#160;&#160;&#160;&#160;&#160;&#160;&#160;&#160;&#160;&#160;&#160;&#160;&#160;&#160;Status &#160;&#160;&#160;&#160;&#160;&#160;&#160;&#160;&#160;&#160;&#160;&#160;&#160;&#160;&#160;&#160;&#160;&#160;&#160;&#160;&#160;&#160;&#160;&#160;&#160;&#160;&#160;&#160;&#160;&#160;&#160;&#160;&#160;&#160;&#160;&#160;&#160;&#160;</text>
<polygon fill="none" stroke="#99ccff" points="933.5352,-52 933.5352,-69 1024.5352,-69 1024.5352,-52 933.5352,-52"/>
<text text-anchor="start" x="936.1282" y="-57.2" font-family="Courier,monospace" font-size="11.00" fill="#000000">picklist(255)</text>
<polygon fill="none" stroke="#99ccff" points="267.5352,-35 267.5352,-52 933.5352,-52 933.5352,-35 267.5352,-35"/>
<text text-anchor="start" x="270.5352" y="-40.2" font-family="Courier,monospace" font-size="11.00" fill="#000000"> &#160;&#160;&#160;&#160;&#160;&#160;&#160;&#160;&#160;&#160;&#160;&#160;&#160;&#160;&#160;&#160;&#160;&#160;&#160;&#160;&#160;&#160;&#160;&#160;&#160;&#160;&#160;&#160;&#160;&#160;&#160;&#160;&#160;&#160;&#160;&#160;&#160;&#160;&#160;&#160;ActivationDateTime &#160;&#160;&#160;&#160;&#160;&#160;&#160;&#160;&#160;&#160;&#160;&#160;&#160;&#160;&#160;&#160;&#160;&#160;&#160;&#160;&#160;&#160;&#160;&#160;&#160;&#160;&#160;&#160;&#160;&#160;&#160;&#160;&#160;&#160;&#160;&#160;&#160;&#160;</text>
<polygon fill="none" stroke="#99ccff" points="933.5352,-35 933.5352,-52 1024.5352,-52 1024.5352,-35 933.5352,-35"/>
<text text-anchor="start" x="952.6309" y="-40.2" font-family="Courier,monospace" font-size="11.00" fill="#000000">datetime</text>
<polygon fill="none" stroke="#99ccff" points="267.5352,-18 267.5352,-35 933.5352,-35 933.5352,-18 267.5352,-18"/>
<text text-anchor="start" x="270.4814" y="-23.2" font-family="Courier,monospace" font-size="11.00" fill="#000000"> &#160;&#160;&#160;&#160;&#160;&#160;&#160;&#160;&#160;&#160;&#160;&#160;&#160;&#160;&#160;&#160;&#160;&#160;&#160;&#160;&#160;&#160;&#160;&#160;&#160;&#160;&#160;&#160;&#160;&#160;&#160;&#160;&#160;&#160;&#160;&#160;&#160;&#160;&#160;&#160;InactivationDateTime &#160;&#160;&#160;&#160;&#160;&#160;&#160;&#160;&#160;&#160;&#160;&#160;&#160;&#160;&#160;&#160;&#160;&#160;&#160;&#160;&#160;&#160;&#160;&#160;&#160;&#160;&#160;&#160;&#160;&#160;&#160;&#160;&#160;&#160;&#160;&#160;&#160;&#160;</text>
<polygon fill="none" stroke="#99ccff" points="933.5352,-18 933.5352,-35 1024.5352,-35 1024.5352,-18 933.5352,-18"/>
<text text-anchor="start" x="952.6309" y="-23.2" font-family="Courier,monospace" font-size="11.00" fill="#000000">datetime</text>
<polygon fill="none" stroke="#99ccff" points="266.0352,-17 266.0352,-223 1025.0352,-223 1025.0352,-17 266.0352,-17"/>
</a>
</g>
</g>
<!-- User -->
<g id="node2" class="node">
<title>User</title>
<text text-anchor="middle" x="67.4097" y="-142.7" font-family="Courier,monospace" font-size="11.00" fill="#000000">User</text>
</g>
<!-- ActionPlanTemplateVersion&#45;&gt;User -->
<g id="edge1" class="edge">
<title>ActionPlanTemplateVersion:w&#45;&gt;User:e</title>
<path fill="none" stroke="#ff99cc" d="M252.8649,-146C194.556,-146 130.0887,-146 94.6001,-146"/>
<polygon fill="#ff99cc" stroke="#ff99cc" points="259.5352,-146.0001 267.5352,-149.6 263.5352,-146 267.5352,-146 267.5352,-146 267.5352,-146 263.5352,-146 267.5351,-142.4 259.5352,-146.0001 259.5352,-146.0001"/>
<ellipse fill="none" stroke="#ff99cc" cx="256.3352" cy="-146.0001" rx="3.2" ry="3.2"/>
<text text-anchor="middle" x="200.4272" y="-150.8015" font-family="Monaco" font-size="9.00" fill="#000000">LastModifiedBy</text>
</g>
<!-- ActionPlanTemplate -->
<g id="node3" class="node">
<title>ActionPlanTemplate</title>
<text text-anchor="middle" x="67.4097" y="-90.7" font-family="Courier,monospace" font-size="11.00" fill="#000000">ActionPlanTemplate</text>
</g>
<!-- ActionPlanTemplateVersion&#45;&gt;ActionPlanTemplate -->
<g id="edge2" class="edge">
<title>ActionPlanTemplateVersion:w&#45;&gt;ActionPlanTemplate:e</title>
<path fill="none" stroke="#ff99cc" d="M252.8816,-94C212.6902,-94 169.5712,-94 135.0322,-94"/>
<polygon fill="#ff99cc" stroke="#ff99cc" points="259.5352,-94.0001 267.5352,-97.6 263.5352,-94 267.5352,-94 267.5352,-94 267.5352,-94 263.5352,-94 267.5351,-90.4 259.5352,-94.0001 259.5352,-94.0001"/>
<ellipse fill="none" stroke="#ff99cc" cx="256.3352" cy="-94.0001" rx="3.2" ry="3.2"/>
<text text-anchor="middle" x="200.4272" y="-99.8015" font-family="Monaco" font-size="9.00" fill="#000000">ActionPlanTemplate</text>
</g>
</g>
</svg>
