<?xml version="1.0" encoding="UTF-8" standalone="no"?>
<!DOCTYPE svg PUBLIC "-//W3C//DTD SVG 1.1//EN"
 "http://www.w3.org/Graphics/SVG/1.1/DTD/svg11.dtd">
<!-- Generated by graphviz version 2.40.1 (20161225.0304)
 -->
<!-- Title: Salesforce+ ERD Pages: 1 -->
<svg width="1033pt" height="231pt"
 viewBox="0.00 0.00 1033.04 231.00" xmlns="http://www.w3.org/2000/svg" xmlns:xlink="http://www.w3.org/1999/xlink">
<g id="graph0" class="graph" transform="scale(1 1) rotate(0) translate(4 227)">
<title>Salesforce+ ERD</title>
<polygon fill="#efeffd" stroke="transparent" points="-4,4 -4,-227 1029.0352,-227 1029.0352,4 -4,4"/>
<text text-anchor="middle" x="976.5286" y="-5.8" font-family="Courier,monospace" font-size="9.00" fill="#000000">Salesforce ERD </text>
<!-- ActionPlanTemplateVersion -->
<g id="node1" class="node">
<title>ActionPlanTemplateVersion</title>
<g id="a_node1"><a xlink:href="#" xlink:title=" ActionPlanTemplateVersion ">
<polygon fill="#ffeeff" stroke="transparent" points="266.0352,-17 266.0352,-223 1025.0352,-223 1025.0352,-17 266.0352,-17"/>
<polygon fill="#add8e6" stroke="transparent" points="267.5352,-205 267.5352,-222 1024.5352,-222 1024.5352,-205 267.5352,-205"/>
<polygon fill="none" stroke="#99ccff" points="267.5352,-205 267.5352,-222 1024.5352,-222 1024.5352,-205 267.5352,-205"/>
<text text-anchor="start" x="563.5217" y="-211.2" font-family="Courier,monospace" font-weight="bold" font-size="11.00" fill="#000000">ActionPlanTemplateVersion</text>
<polygon fill="#99ccff" stroke="transparent" points="267.5352,-188 267.5352,-205 933.5352,-205 933.5352,-188 267.5352,-188"/>
<polygon fill="none" stroke="#99ccff" points="267.5352,-188 267.5352,-205 933.5352,-205 933.5352,-188 267.5352,-188"/>
<text text-anchor="start" x="270.5352" y="-194.2" font-family="Courier,monospace" font-size="11.00" fill="#000000"> &#160;&#160;&#160;&#160;&#160;&#160;&#160;&#160;&#160;&#160;&#160;&#160;&#160;&#160;&#160;&#160;&#160;&#160;&#160;&#160;&#160;&#160;&#160;&#160;&#160;&#160;&#160;&#160;&#160;&#160;&#160;&#160;&#160;&#160;&#160;&#160;&#160;&#160;&#160;&#160;&#160;&#160;</text>
<text text-anchor="start" x="554.3813" y="-194.2" font-family="Courier,monospace" font-weight="bold" font-size="11.00" fill="#000000">Id</text>
<text text-anchor="start" x="567.5835" y="-194.2" font-family="Courier,monospace" font-size="11.00" fill="#000000"> &#160;&#160;&#160;&#160;&#160;&#160;&#160;&#160;&#160;&#160;&#160;&#160;&#160;&#160;&#160;&#160;&#160;&#160;&#160;&#160;&#160;&#160;&#160;&#160;&#160;&#160;&#160;&#160;&#160;&#160;&#160;&#160;&#160;&#160;&#160;&#160;&#160;&#160;&#160;</text>
<polygon fill="none" stroke="#99ccff" points="933.5352,-188 933.5352,-205 1024.5352,-205 1024.5352,-188 933.5352,-188"/>
<text text-anchor="start" x="959.2319" y="-193.2" font-family="Courier,monospace" font-size="11.00" fill="#000000">id(18)</text>
<polygon fill="none" stroke="#99ccff" points="267.5352,-171 267.5352,-188 933.5352,-188 933.5352,-171 267.5352,-171"/>
<text text-anchor="start" x="270.5352" y="-176.2" font-family="Courier,monospace" font-size="11.00" fill="#000000"> &#160;&#160;&#160;&#160;&#160;&#160;&#160;&#160;&#160;&#160;&#160;&#160;&#160;&#160;&#160;&#160;&#160;&#160;&#160;&#160;&#160;&#160;&#160;&#160;&#160;&#160;&#160;&#160;&#160;&#160;&#160;&#160;&#160;&#160;&#160;&#160;&#160;&#160;&#160;&#160;IsDeleted &#160;&#160;&#160;&#160;&#160;&#160;&#160;&#160;&#160;&#160;&#160;&#160;&#160;&#160;&#160;&#160;&#160;&#160;&#160;&#160;&#160;&#160;&#160;&#160;&#160;&#160;&#160;&#160;&#160;&#160;&#160;&#160;&#160;&#160;&#160;&#160;&#160;&#160;</text>
<polygon fill="none" stroke="#99ccff" points="933.5352,-171 933.5352,-188 1024.5352,-188 1024.5352,-171 933.5352,-171"/>
<text text-anchor="start" x="955.9314" y="-176.2" font-family="Courier,monospace" font-size="11.00" fill="#000000">boolean</text>
<polygon fill="none" stroke="#99ccff" points="267.5352,-154 267.5352,-171 933.5352,-171 933.5352,-154 267.5352,-154"/>
<text text-anchor="start" x="270.5352" y="-159.2" font-family="Courier,monospace" font-size="11.00" fill="#000000"> &#160;&#160;&#160;&#160;&#160;&#160;&#160;&#160;&#160;&#160;&#160;&#160;&#160;&#160;&#160;&#160;&#160;&#160;&#160;&#160;&#160;&#160;&#160;&#160;&#160;&#160;&#160;&#160;&#160;&#160;&#160;&#160;&#160;&#160;&#160;&#160;&#160;&#160;&#160;&#160;Name &#160;&#160;&#160;&#160;&#160;&#160;&#160;&#160;&#160;&#160;&#160;&#160;&#160;&#160;&#160;&#160;&#160;&#160;&#160;&#160;&#160;&#160;&#160;&#160;&#160;&#160;&#160;&#160;&#160;&#160;&#160;&#160;&#160;&#160;&#160;&#160;&#160;&#160;</text>
<polygon fill="none" stroke="#99ccff" points="933.5352,-154 933.5352,-171 1024.5352,-171 1024.5352,-154 933.5352,-154"/>
<text text-anchor="start" x="942.7292" y="-159.2" font-family="Courier,monospace" font-size="11.00" fill="#000000">string(255)</text>
<polygon fill="none" stroke="#99ccff" points="267.5352,-137 267.5352,-154 933.5352,-154 933.5352,-137 267.5352,-137"/>
<text text-anchor="start" x="270.5352" y="-142.2" font-family="Courier,monospace" font-size="11.00" fill="#000000"> &#160;&#160;&#160;&#160;&#160;&#160;&#160;&#160;&#160;&#160;&#160;&#160;&#160;&#160;&#160;&#160;&#160;&#160;&#160;&#160;&#160;&#160;&#160;&#160;&#160;&#160;&#160;&#160;&#160;&#160;&#160;&#160;&#160;&#160;&#160;&#160;&#160;&#160;&#160;&#160;LastModifiedById &#160;&#160;&#160;&#160;&#160;&#160;&#160;&#160;&#160;&#160;&#160;&#160;&#160;&#160;&#160;&#160;&#160;&#160;&#160;&#160;&#160;&#160;&#160;&#160;&#160;&#160;&#160;&#160;&#160;&#160;&#160;&#160;&#160;&#160;&#160;&#160;&#160;&#160;</text>
<polygon fill="none" stroke="#99ccff" points="933.5352,-137 933.5352,-154 1024.5352,-154 1024.5352,-137 933.5352,-137"/>
<text text-anchor="start" x="936.1282" y="-142.2" font-family="Courier,monospace" font-size="11.00" fill="#000000">reference(18)</text>
<polygon fill="none" stroke="#99ccff" points="267.5352,-120 267.5352,-137 933.5352,-137 933.5352,-120 267.5352,-120"/>
<text text-anchor="start" x="270.5352" y="-125.2" font-family="Courier,monospace" font-size="11.00" fill="#000000"> &#160;&#160;&#160;&#160;&#160;&#160;&#160;&#160;&#160;&#160;&#160;&#160;&#160;&#160;&#160;&#160;&#160;&#160;&#160;&#160;&#160;&#160;&#160;&#160;&#160;&#160;&#160;&#160;&#160;&#160;&#160;&#160;&#160;&#160;&#160;&#160;&#160;&#160;&#160;&#160;LastViewedDate &#160;&#160;&#160;&#160;&#160;&#160;&#160;&#160;&#160;&#160;&#160;&#160;&#160;&#160;&#160;&#160;&#160;&#160;&#160;&#160;&#160;&#160;&#160;&#160;&#160;&#160;&#160;&#160;&#160;&#160;&#160;&#160;&#160;&#160;&#160;&#160;&#160;&#160;</text>
<polygon fill="none" stroke="#99ccff" points="933.5352,-120 933.5352,-137 1024.5352,-137 1024.5352,-120 933.5352,-120"/>
<text text-anchor="start" x="952.6309" y="-125.2" font-family="Courier,monospace" font-size="11.00" fill="#000000">datetime</text>
<polygon fill="none" stroke="#99ccff" points="267.5352,-103 267.5352,-120 933.5352,-120 933.5352,-103 267.5352,-103"/>
<text text-anchor="start" x="270.5352" y="-108.2" font-family="Courier,monospace" font-size="11.00" fill="#000000"> &#160;&#160;&#160;&#160;&#160;&#160;&#160;&#160;&#160;&#160;&#160;&#160;&#160;&#160;&#160;&#160;&#160;&#160;&#160;&#160;&#160;&#160;&#160;&#160;&#160;&#160;&#160;&#160;&#160;&#160;&#160;&#160;&#160;&#160;&#160;&#160;&#160;&#160;&#160;&#160;LastReferencedDate &#160;&#160;&#160;&#160;&#160;&#160;&#160;&#160;&#160;&#160;&#160;&#160;&#160;&#160;&#160;&#160;&#160;&#160;&#160;&#160;&#160;&#160;&#160;&#160;&#160;&#160;&#160;&#160;&#160;&#160;&#160;&#160;&#160;&#160;&#160;&#160;&#160;&#160;</text>
<polygon fill="none" stroke="#99ccff" points="933.5352,-103 933.5352,-120 1024.5352,-120 1024.5352,-103 933.5352,-103"/>
<text text-anchor="start" x="952.6309" y="-108.2" font-family="Courier,monospace" font-size="11.00" fill="#000000">datetime</text>
<polygon fill="none" stroke="#99ccff" points="267.5352,-86 267.5352,-103 933.5352,-103 933.5352,-86 267.5352,-86"/>
<text text-anchor="start" x="270.4814" y="-91.2" font-family="Courier,monospace" font-size="11.00" fill="#000000"> &#160;&#160;&#160;&#160;&#160;&#160;&#160;&#160;&#160;&#160;&#160;&#160;&#160;&#160;&#160;&#160;&#160;&#160;&#160;&#160;&#160;&#160;&#160;&#160;&#160;&#160;&#160;&#160;&#160;&#160;&#160;&#160;&#160;&#160;&#160;&#160;&#160;&#160;&#160;&#160;ActionPlanTemplateId &#160;&#160;&#160;&#160;&#160;&#160;&#160;&#160;&#160;&#160;&#160;&#160;&#160;&#160;&#160;&#160;&#160;&#160;&#160;&#160;&#160;&#160;&#160;&#160;&#160;&#160;&#160;&#160;&#160;&#160;&#160;&#160;&#160;&#160;&#160;&#160;&#160;&#160;</text>
<polygon fill="none" stroke="#99ccff" points="933.5352,-86 933.5352,-103 1024.5352,-103 1024.5352,-86 933.5352,-86"/>
<text text-anchor="start" x="936.1282" y="-91.2" font-family="Courier,monospace" font-size="11.00" fill="#000000">reference(18)</text>
<polygon fill="none" stroke="#99ccff" points="267.5352,-69 267.5352,-86 933.5352,-86 933.5352,-69 267.5352,-69"/>
<text text-anchor="start" x="270.5352" y="-74.2" font-family="Courier,monospace" font-size="11.00" fill="#000000"> &#160;&#160;&#160;&#160;&#160;&#160;&#160;&#160;&#160;&#160;&#160;&#160;&#160;&#160;&#160;&#160;&#160;&#160;&#160;&#160;&#160;&#160;&#160;&#160;&#160;&#160;&#160;&#160;&#160;&#160;&#160;&#160;&#160;&#160;&#160;&#160;&#160;&#160;&#160;&#160;Version &#160;&#160;&#160;&#160;&#160;&#160;&#160;&#160;&#160;&#160;&#160;&#160;&#160;&#160;&#160;&#160;&#160;&#160;&#160;&#160;&#160;&#160;&#160;&#160;&#160;&#160;&#160;&#160;&#160;&#160;&#160;&#160;&#160;&#160;&#160;&#160;&#160;&#160;</text>
<polygon fill="none" stroke="#99ccff" points="933.5352,-69 933.5352,-86 1024.5352,-86 1024.5352,-69 933.5352,-69"/>
<text text-anchor="start" x="969.1335" y="-74.2" font-family="Courier,monospace" font-size="11.00" fill="#000000">int</text>
<polygon fill="none" stroke="#99ccff" points="267.5352,-52 267.5352,-69 933.5352,-69 933.5352,-52 267.5352,-52"/>
<text text-anchor="start" x="270.5352" y="-57.2" font-family="Courier,monospace" font-size="11.00" fill="#000000"> &#160;&#160;&#160;&#160;&#160;&#160;&#160;&#160;&#160;&#160;&#160;&#160;&#160;&#160;&#160;&#160;&#160;&#160;&#160;&#160;&#160;&#160;&#160;&#160;&#160;&#160;&#160;&#160;&#160;&#160;&#160;&#160;&#160;&#160;&#160;&#160;&#160;&#160;&#160;&#160;Status &#160;&#160;&#160;&#160;&#160;&#160;&#160;&#160;&#160;&#160;&#160;&#160;&#160;&#160;&#160;&#160;&#160;&#160;&#160;&#160;&#160;&#160;&#160;&#160;&#160;&#160;&#160;&#160;&#160;&#160;&#160;&#160;&#160;&#160;&#160;&#160;&#160;&#160;</text>
<polygon fill="none" stroke="#99ccff" points="933.5352,-52 933.5352,-69 1024.5352,-69 1024.5352,-52 933.5352,-52"/>
<text text-anchor="start" x="936.1282" y="-57.2" font-family="Courier,monospace" font-size="11.00" fill="#000000">picklist(255)</text>
<polygon fill="none" stroke="#99ccff" points="267.5352,-35 267.5352,-52 933.5352,-52 933.5352,-35 267.5352,-35"/>
<text text-anchor="start" x="270.5352" y="-40.2" font-family="Courier,monospace" font-size="11.00" fill="#000000"> &#160;&#160;&#160;&#160;&#160;&#160;&#160;&#160;&#160;&#160;&#160;&#160;&#160;&#160;&#160;&#160;&#160;&#160;&#160;&#160;&#160;&#160;&#160;&#160;&#160;&#160;&#160;&#160;&#160;&#160;&#160;&#160;&#160;&#160;&#160;&#160;&#160;&#160;&#160;&#160;ActivationDateTime &#160;&#160;&#160;&#160;&#160;&#160;&#160;&#160;&#160;&#160;&#160;&#160;&#160;&#160;&#160;&#160;&#160;&#160;&#160;&#160;&#160;&#160;&#160;&#160;&#160;&#160;&#160;&#160;&#160;&#160;&#160;&#160;&#160;&#160;&#160;&#160;&#160;&#160;</text>
<polygon fill="none" stroke="#99ccff" points="933.5352,-35 933.5352,-52 1024.5352,-52 1024.5352,-35 933.5352,-35"/>
<text text-anchor="start" x="952.6309" y="-40.2" font-family="Courier,monospace" font-size="11.00" fill="#000000">datetime</text>
<polygon fill="none" stroke="#99ccff" points="267.5352,-18 267.5352,-35 933.5352,-35 933.5352,-18 267.5352,-18"/>
<text text-anchor="start" x="270.4814" y="-23.2" font-family="Courier,monospace" font-size="11.00" fill="#000000"> &#160;&#160;&#160;&#160;&#160;&#160;&#160;&#160;&#160;&#160;&#160;&#160;&#160;&#160;&#160;&#160;&#160;&#160;&#160;&#160;&#160;&#160;&#160;&#160;&#160;&#160;&#160;&#160;&#160;&#160;&#160;&#160;&#160;&#160;&#160;&#160;&#160;&#160;&#160;&#160;InactivationDateTime &#160;&#160;&#160;&#160;&#160;&#160;&#160;&#160;&#160;&#160;&#160;&#160;&#160;&#160;&#160;&#160;&#160;&#160;&#160;&#160;&#160;&#160;&#160;&#160;&#160;&#160;&#160;&#160;&#160;&#160;&#160;&#160;&#160;&#160;&#160;&#160;&#160;&#160;</text>
<polygon fill="none" stroke="#99ccff" points="933.5352,-18 933.5352,-35 1024.5352,-35 1024.5352,-18 933.5352,-18"/>
<text text-anchor="start" x="952.6309" y="-23.2" font-family="Courier,monospace" font-size="11.00" fill="#000000">datetime</text>
<polygon fill="none" stroke="#99ccff" points="266.0352,-17 266.0352,-223 1025.0352,-223 1025.0352,-17 266.0352,-17"/>
</a>
</g>
</g>
<!-- User -->
<g id="node2" class="node">
<title>User</title>
<text text-anchor="middle" x="67.4097" y="-146.7" font-family="Courier,monospace" font-size="11.00" fill="#000000">User</text>
</g>
<!-- ActionPlanTemplateVersion&#45;&gt;User -->
<g id="edge1" class="edge">
<title>ActionPlanTemplateVersion:w&#45;&gt;User:e</title>
<path fill="none" stroke="#ff99cc" d="M254.0626,-151.3749C252.672,-152.048 251.062,-152.6294 249.0352,-153 206.5329,-160.7721 195.0196,-153.7674 151.8193,-153 132.7595,-152.6614 111.2903,-151.8931 94.7738,-151.2188"/>
<polygon fill="#ff99cc" stroke="#ff99cc" points="260.1047,-148.9644 268.8692,-149.3437 263.8199,-147.4822 267.5352,-146 267.5352,-146 267.5352,-146 263.8199,-147.4822 266.2012,-142.6563 260.1047,-148.9644 260.1047,-148.9644"/>
<ellipse fill="none" stroke="#ff99cc" cx="257.1325" cy="-150.1502" rx="3.2" ry="3.2"/>
<text text-anchor="middle" x="200.4272" y="-160.8015" font-family="Monaco" font-size="9.00" fill="#000000">LastModifiedBy</text>
</g>
<!-- ActionPlanTemplateVersion&#45;&gt;User -->
<g id="edge3" class="edge">
<title>ActionPlanTemplateVersion:w&#45;&gt;User:e</title>
<path fill="none" stroke="#ff99cc" d="M254.3669,-140.0148C252.9211,-139.1795 251.2282,-138.4525 249.0352,-137.9985 206.725,-129.2407 194.9187,-134.9499 151.8193,-137.9985 132.6249,-139.3563 111.1578,-142.4299 94.6759,-145.1266"/>
<polygon fill="#ff99cc" stroke="#ff99cc" points="260.2521,-142.6897 266.0455,-149.2774 263.8936,-144.3449 267.5352,-146 267.5352,-146 267.5352,-146 263.8936,-144.3449 269.0248,-142.7226 260.2521,-142.6897 260.2521,-142.6897"/>
<ellipse fill="none" stroke="#ff99cc" cx="257.3389" cy="-141.3656" rx="3.2" ry="3.2"/>
<text text-anchor="middle" x="200.4272" y="-141.8015" font-family="Monaco" font-size="9.00" fill="#000000">LastModifiedBy</text>
</g>
<!-- ActionPlanTemplate -->
<g id="node3" class="node">
<title>ActionPlanTemplate</title>
<text text-anchor="middle" x="67.4097" y="-87.7" font-family="Courier,monospace" font-size="11.00" fill="#000000">ActionPlanTemplate</text>
</g>
<!-- ActionPlanTemplateVersion&#45;&gt;ActionPlanTemplate -->
<g id="edge2" class="edge">
<title>ActionPlanTemplateVersion:w&#45;&gt;ActionPlanTemplate:e</title>
<path fill="none" stroke="#ff99cc" d="M252.8801,-93.9745C212.6853,-93.8384 169.5664,-93.1803 135.0284,-92.5176"/>
<polygon fill="#ff99cc" stroke="#ff99cc" points="259.5352,-93.986 267.5289,-97.6 263.5352,-93.993 267.5352,-94 267.5352,-94 267.5352,-94 263.5352,-93.993 267.5415,-90.4 259.5352,-93.986 259.5352,-93.986"/>
<ellipse fill="none" stroke="#ff99cc" cx="256.3352" cy="-93.9804" rx="3.2" ry="3.2"/>
<text text-anchor="middle" x="200.4272" y="-98.8015" font-family="Monaco" font-size="9.00" fill="#000000">ActionPlanTemplate</text>
</g>
<!-- ActionPlanTemplateVersion&#45;&gt;ActionPlanTemplate -->
<g id="edge4" class="edge">
<title>ActionPlanTemplateVersion:w&#45;&gt;ActionPlanTemplate:e</title>
<path fill="none" stroke="#ff99cc" d="M256.4991,-84.729C254.8833,-82.0274 252.8554,-79.4215 249.0352,-77.9985 208.5456,-62.9173 194.9003,-74.7001 151.8193,-77.9985 146.3493,-78.4173 140.6971,-78.9867 135.0298,-79.6543"/>
<polygon fill="#ff99cc" stroke="#ff99cc" points="261.4097,-88.8542 265.2195,-96.7565 264.4724,-91.4271 267.5352,-94 267.5352,-94 267.5352,-94 264.4724,-91.4271 269.8508,-91.2435 261.4097,-88.8542 261.4097,-88.8542"/>
<ellipse fill="none" stroke="#ff99cc" cx="258.9595" cy="-86.7959" rx="3.2" ry="3.2"/>
<text text-anchor="middle" x="200.4272" y="-82.8015" font-family="Monaco" font-size="9.00" fill="#000000">ActionPlanTemplate</text>
</g>
</g>
</svg>
