<?xml version="1.0" encoding="UTF-8" standalone="no"?>
<!DOCTYPE svg PUBLIC "-//W3C//DTD SVG 1.1//EN"
 "http://www.w3.org/Graphics/SVG/1.1/DTD/svg11.dtd">
<!-- Generated by graphviz version 2.40.1 (20161225.0304)
 -->
<!-- Title: Salesforce+ ERD Pages: 1 -->
<svg width="1209pt" height="1058pt"
 viewBox="0.00 0.00 1209.26 1057.76" xmlns="http://www.w3.org/2000/svg" xmlns:xlink="http://www.w3.org/1999/xlink">
<g id="graph0" class="graph" transform="scale(1 1) rotate(0) translate(4 1053.763)">
<title>Salesforce+ ERD</title>
<polygon fill="#efeffd" stroke="transparent" points="-4,4 -4,-1053.763 1205.2563,-1053.763 1205.2563,4 -4,4"/>
<text text-anchor="middle" x="1152.7498" y="-5.8" font-family="Courier,monospace" font-size="9.00" fill="#000000">Salesforce ERD </text>
<!-- ActionPlan -->
<g id="node1" class="node">
<title>ActionPlan</title>
<g id="a_node1"><a xlink:href="#" xlink:title=" ActionPlan ">
<polygon fill="#ffeeff" stroke="transparent" points="396.2563,-458.7616 396.2563,-698.7616 1201.2563,-698.7616 1201.2563,-458.7616 396.2563,-458.7616"/>
<polygon fill="#add8e6" stroke="transparent" points="397.7563,-680.7616 397.7563,-697.7616 1200.7563,-697.7616 1200.7563,-680.7616 397.7563,-680.7616"/>
<polygon fill="none" stroke="#99ccff" points="397.7563,-680.7616 397.7563,-697.7616 1200.7563,-697.7616 1200.7563,-680.7616 397.7563,-680.7616"/>
<text text-anchor="start" x="766.251" y="-686.9616" font-family="Courier,monospace" font-weight="bold" font-size="11.00" fill="#000000">ActionPlan</text>
<polygon fill="#99ccff" stroke="transparent" points="397.7563,-663.7616 397.7563,-680.7616 1109.7563,-680.7616 1109.7563,-663.7616 397.7563,-663.7616"/>
<polygon fill="none" stroke="#99ccff" points="397.7563,-663.7616 397.7563,-680.7616 1109.7563,-680.7616 1109.7563,-663.7616 397.7563,-663.7616"/>
<text text-anchor="start" x="400.7563" y="-669.9616" font-family="Courier,monospace" font-size="11.00" fill="#000000"> &#160;&#160;&#160;&#160;&#160;&#160;&#160;&#160;&#160;&#160;&#160;&#160;&#160;&#160;&#160;&#160;&#160;&#160;&#160;&#160;&#160;&#160;&#160;&#160;&#160;&#160;&#160;&#160;&#160;&#160;&#160;&#160;&#160;&#160;&#160;&#160;&#160;&#160;&#160;&#160;&#160;&#160;</text>
<text text-anchor="start" x="684.6025" y="-669.9616" font-family="Courier,monospace" font-weight="bold" font-size="11.00" fill="#000000">Id</text>
<text text-anchor="start" x="697.8047" y="-669.9616" font-family="Courier,monospace" font-size="11.00" fill="#000000"> &#160;&#160;&#160;&#160;&#160;&#160;&#160;&#160;&#160;&#160;&#160;&#160;&#160;&#160;&#160;&#160;&#160;&#160;&#160;&#160;&#160;&#160;&#160;&#160;&#160;&#160;&#160;&#160;&#160;&#160;&#160;&#160;&#160;&#160;&#160;&#160;&#160;&#160;&#160;</text>
<polygon fill="none" stroke="#99ccff" points="1109.7563,-663.7616 1109.7563,-680.7616 1200.7563,-680.7616 1200.7563,-663.7616 1109.7563,-663.7616"/>
<text text-anchor="start" x="1135.4531" y="-668.9616" font-family="Courier,monospace" font-size="11.00" fill="#000000">id(18)</text>
<polygon fill="none" stroke="#99ccff" points="397.7563,-646.7616 397.7563,-663.7616 1109.7563,-663.7616 1109.7563,-646.7616 397.7563,-646.7616"/>
<text text-anchor="start" x="400.7563" y="-651.9616" font-family="Courier,monospace" font-size="11.00" fill="#000000"> &#160;&#160;&#160;&#160;&#160;&#160;&#160;&#160;&#160;&#160;&#160;&#160;&#160;&#160;&#160;&#160;&#160;&#160;&#160;&#160;&#160;&#160;&#160;&#160;&#160;&#160;&#160;&#160;&#160;&#160;&#160;&#160;&#160;&#160;&#160;&#160;&#160;&#160;&#160;&#160;OwnerId &#160;&#160;&#160;&#160;&#160;&#160;&#160;&#160;&#160;&#160;&#160;&#160;&#160;&#160;&#160;&#160;&#160;&#160;&#160;&#160;&#160;&#160;&#160;&#160;&#160;&#160;&#160;&#160;&#160;&#160;&#160;&#160;&#160;&#160;&#160;&#160;&#160;&#160;</text>
<polygon fill="none" stroke="#99ccff" points="1109.7563,-646.7616 1109.7563,-663.7616 1200.7563,-663.7616 1200.7563,-646.7616 1109.7563,-646.7616"/>
<text text-anchor="start" x="1112.3494" y="-651.9616" font-family="Courier,monospace" font-size="11.00" fill="#000000">reference(18)</text>
<polygon fill="none" stroke="#99ccff" points="397.7563,-629.7616 397.7563,-646.7616 1109.7563,-646.7616 1109.7563,-629.7616 397.7563,-629.7616"/>
<text text-anchor="start" x="400.7563" y="-634.9616" font-family="Courier,monospace" font-size="11.00" fill="#000000"> &#160;&#160;&#160;&#160;&#160;&#160;&#160;&#160;&#160;&#160;&#160;&#160;&#160;&#160;&#160;&#160;&#160;&#160;&#160;&#160;&#160;&#160;&#160;&#160;&#160;&#160;&#160;&#160;&#160;&#160;&#160;&#160;&#160;&#160;&#160;&#160;&#160;&#160;&#160;&#160;IsDeleted &#160;&#160;&#160;&#160;&#160;&#160;&#160;&#160;&#160;&#160;&#160;&#160;&#160;&#160;&#160;&#160;&#160;&#160;&#160;&#160;&#160;&#160;&#160;&#160;&#160;&#160;&#160;&#160;&#160;&#160;&#160;&#160;&#160;&#160;&#160;&#160;&#160;&#160;</text>
<polygon fill="none" stroke="#99ccff" points="1109.7563,-629.7616 1109.7563,-646.7616 1200.7563,-646.7616 1200.7563,-629.7616 1109.7563,-629.7616"/>
<text text-anchor="start" x="1132.1526" y="-634.9616" font-family="Courier,monospace" font-size="11.00" fill="#000000">boolean</text>
<polygon fill="none" stroke="#99ccff" points="397.7563,-612.7616 397.7563,-629.7616 1109.7563,-629.7616 1109.7563,-612.7616 397.7563,-612.7616"/>
<text text-anchor="start" x="400.7563" y="-617.9616" font-family="Courier,monospace" font-size="11.00" fill="#000000"> &#160;&#160;&#160;&#160;&#160;&#160;&#160;&#160;&#160;&#160;&#160;&#160;&#160;&#160;&#160;&#160;&#160;&#160;&#160;&#160;&#160;&#160;&#160;&#160;&#160;&#160;&#160;&#160;&#160;&#160;&#160;&#160;&#160;&#160;&#160;&#160;&#160;&#160;&#160;&#160;Name &#160;&#160;&#160;&#160;&#160;&#160;&#160;&#160;&#160;&#160;&#160;&#160;&#160;&#160;&#160;&#160;&#160;&#160;&#160;&#160;&#160;&#160;&#160;&#160;&#160;&#160;&#160;&#160;&#160;&#160;&#160;&#160;&#160;&#160;&#160;&#160;&#160;&#160;</text>
<polygon fill="none" stroke="#99ccff" points="1109.7563,-612.7616 1109.7563,-629.7616 1200.7563,-629.7616 1200.7563,-612.7616 1109.7563,-612.7616"/>
<text text-anchor="start" x="1118.9504" y="-617.9616" font-family="Courier,monospace" font-size="11.00" fill="#000000">string(255)</text>
<polygon fill="none" stroke="#99ccff" points="397.7563,-595.7616 397.7563,-612.7616 1109.7563,-612.7616 1109.7563,-595.7616 397.7563,-595.7616"/>
<text text-anchor="start" x="400.7563" y="-600.9616" font-family="Courier,monospace" font-size="11.00" fill="#000000"> &#160;&#160;&#160;&#160;&#160;&#160;&#160;&#160;&#160;&#160;&#160;&#160;&#160;&#160;&#160;&#160;&#160;&#160;&#160;&#160;&#160;&#160;&#160;&#160;&#160;&#160;&#160;&#160;&#160;&#160;&#160;&#160;&#160;&#160;&#160;&#160;&#160;&#160;&#160;&#160;LastModifiedById &#160;&#160;&#160;&#160;&#160;&#160;&#160;&#160;&#160;&#160;&#160;&#160;&#160;&#160;&#160;&#160;&#160;&#160;&#160;&#160;&#160;&#160;&#160;&#160;&#160;&#160;&#160;&#160;&#160;&#160;&#160;&#160;&#160;&#160;&#160;&#160;&#160;&#160;</text>
<polygon fill="none" stroke="#99ccff" points="1109.7563,-595.7616 1109.7563,-612.7616 1200.7563,-612.7616 1200.7563,-595.7616 1109.7563,-595.7616"/>
<text text-anchor="start" x="1112.3494" y="-600.9616" font-family="Courier,monospace" font-size="11.00" fill="#000000">reference(18)</text>
<polygon fill="none" stroke="#99ccff" points="397.7563,-578.7616 397.7563,-595.7616 1109.7563,-595.7616 1109.7563,-578.7616 397.7563,-578.7616"/>
<text text-anchor="start" x="400.7563" y="-583.9616" font-family="Courier,monospace" font-size="11.00" fill="#000000"> &#160;&#160;&#160;&#160;&#160;&#160;&#160;&#160;&#160;&#160;&#160;&#160;&#160;&#160;&#160;&#160;&#160;&#160;&#160;&#160;&#160;&#160;&#160;&#160;&#160;&#160;&#160;&#160;&#160;&#160;&#160;&#160;&#160;&#160;&#160;&#160;&#160;&#160;&#160;&#160;LastViewedDate &#160;&#160;&#160;&#160;&#160;&#160;&#160;&#160;&#160;&#160;&#160;&#160;&#160;&#160;&#160;&#160;&#160;&#160;&#160;&#160;&#160;&#160;&#160;&#160;&#160;&#160;&#160;&#160;&#160;&#160;&#160;&#160;&#160;&#160;&#160;&#160;&#160;&#160;</text>
<polygon fill="none" stroke="#99ccff" points="1109.7563,-578.7616 1109.7563,-595.7616 1200.7563,-595.7616 1200.7563,-578.7616 1109.7563,-578.7616"/>
<text text-anchor="start" x="1128.8521" y="-583.9616" font-family="Courier,monospace" font-size="11.00" fill="#000000">datetime</text>
<polygon fill="none" stroke="#99ccff" points="397.7563,-561.7616 397.7563,-578.7616 1109.7563,-578.7616 1109.7563,-561.7616 397.7563,-561.7616"/>
<text text-anchor="start" x="400.7563" y="-566.9616" font-family="Courier,monospace" font-size="11.00" fill="#000000"> &#160;&#160;&#160;&#160;&#160;&#160;&#160;&#160;&#160;&#160;&#160;&#160;&#160;&#160;&#160;&#160;&#160;&#160;&#160;&#160;&#160;&#160;&#160;&#160;&#160;&#160;&#160;&#160;&#160;&#160;&#160;&#160;&#160;&#160;&#160;&#160;&#160;&#160;&#160;&#160;LastReferencedDate &#160;&#160;&#160;&#160;&#160;&#160;&#160;&#160;&#160;&#160;&#160;&#160;&#160;&#160;&#160;&#160;&#160;&#160;&#160;&#160;&#160;&#160;&#160;&#160;&#160;&#160;&#160;&#160;&#160;&#160;&#160;&#160;&#160;&#160;&#160;&#160;&#160;&#160;</text>
<polygon fill="none" stroke="#99ccff" points="1109.7563,-561.7616 1109.7563,-578.7616 1200.7563,-578.7616 1200.7563,-561.7616 1109.7563,-561.7616"/>
<text text-anchor="start" x="1128.8521" y="-566.9616" font-family="Courier,monospace" font-size="11.00" fill="#000000">datetime</text>
<polygon fill="none" stroke="#99ccff" points="397.7563,-544.7616 397.7563,-561.7616 1109.7563,-561.7616 1109.7563,-544.7616 397.7563,-544.7616"/>
<text text-anchor="start" x="400.7563" y="-549.9616" font-family="Courier,monospace" font-size="11.00" fill="#000000"> &#160;&#160;&#160;&#160;&#160;&#160;&#160;&#160;&#160;&#160;&#160;&#160;&#160;&#160;&#160;&#160;&#160;&#160;&#160;&#160;&#160;&#160;&#160;&#160;&#160;&#160;&#160;&#160;&#160;&#160;&#160;&#160;&#160;&#160;&#160;&#160;&#160;&#160;&#160;&#160;TargetId &#160;&#160;&#160;&#160;&#160;&#160;&#160;&#160;&#160;&#160;&#160;&#160;&#160;&#160;&#160;&#160;&#160;&#160;&#160;&#160;&#160;&#160;&#160;&#160;&#160;&#160;&#160;&#160;&#160;&#160;&#160;&#160;&#160;&#160;&#160;&#160;&#160;&#160;</text>
<polygon fill="none" stroke="#99ccff" points="1109.7563,-544.7616 1109.7563,-561.7616 1200.7563,-561.7616 1200.7563,-544.7616 1109.7563,-544.7616"/>
<text text-anchor="start" x="1112.3494" y="-549.9616" font-family="Courier,monospace" font-size="11.00" fill="#000000">reference(18)</text>
<polygon fill="none" stroke="#99ccff" points="397.7563,-527.7616 397.7563,-544.7616 1109.7563,-544.7616 1109.7563,-527.7616 397.7563,-527.7616"/>
<text text-anchor="start" x="400.5989" y="-532.9616" font-family="Courier,monospace" font-size="11.00" fill="#000000"> &#160;&#160;&#160;&#160;&#160;&#160;&#160;&#160;&#160;&#160;&#160;&#160;&#160;&#160;&#160;&#160;&#160;&#160;&#160;&#160;&#160;&#160;&#160;&#160;&#160;&#160;&#160;&#160;&#160;&#160;&#160;&#160;&#160;&#160;&#160;&#160;&#160;&#160;&#160;&#160;ActionPlanTemplateVersionId &#160;&#160;&#160;&#160;&#160;&#160;&#160;&#160;&#160;&#160;&#160;&#160;&#160;&#160;&#160;&#160;&#160;&#160;&#160;&#160;&#160;&#160;&#160;&#160;&#160;&#160;&#160;&#160;&#160;&#160;&#160;&#160;&#160;&#160;&#160;&#160;&#160;&#160;</text>
<polygon fill="none" stroke="#99ccff" points="1109.7563,-527.7616 1109.7563,-544.7616 1200.7563,-544.7616 1200.7563,-527.7616 1109.7563,-527.7616"/>
<text text-anchor="start" x="1112.3494" y="-532.9616" font-family="Courier,monospace" font-size="11.00" fill="#000000">reference(18)</text>
<polygon fill="none" stroke="#99ccff" points="397.7563,-510.7616 397.7563,-527.7616 1109.7563,-527.7616 1109.7563,-510.7616 397.7563,-510.7616"/>
<text text-anchor="start" x="400.7563" y="-515.9616" font-family="Courier,monospace" font-size="11.00" fill="#000000"> &#160;&#160;&#160;&#160;&#160;&#160;&#160;&#160;&#160;&#160;&#160;&#160;&#160;&#160;&#160;&#160;&#160;&#160;&#160;&#160;&#160;&#160;&#160;&#160;&#160;&#160;&#160;&#160;&#160;&#160;&#160;&#160;&#160;&#160;&#160;&#160;&#160;&#160;&#160;&#160;ActionPlanType &#160;&#160;&#160;&#160;&#160;&#160;&#160;&#160;&#160;&#160;&#160;&#160;&#160;&#160;&#160;&#160;&#160;&#160;&#160;&#160;&#160;&#160;&#160;&#160;&#160;&#160;&#160;&#160;&#160;&#160;&#160;&#160;&#160;&#160;&#160;&#160;&#160;&#160;</text>
<polygon fill="none" stroke="#99ccff" points="1109.7563,-510.7616 1109.7563,-527.7616 1200.7563,-527.7616 1200.7563,-510.7616 1109.7563,-510.7616"/>
<text text-anchor="start" x="1112.3494" y="-515.9616" font-family="Courier,monospace" font-size="11.00" fill="#000000">picklist(255)</text>
<polygon fill="none" stroke="#99ccff" points="397.7563,-493.7616 397.7563,-510.7616 1109.7563,-510.7616 1109.7563,-493.7616 397.7563,-493.7616"/>
<text text-anchor="start" x="400.7563" y="-498.9616" font-family="Courier,monospace" font-size="11.00" fill="#000000"> &#160;&#160;&#160;&#160;&#160;&#160;&#160;&#160;&#160;&#160;&#160;&#160;&#160;&#160;&#160;&#160;&#160;&#160;&#160;&#160;&#160;&#160;&#160;&#160;&#160;&#160;&#160;&#160;&#160;&#160;&#160;&#160;&#160;&#160;&#160;&#160;&#160;&#160;&#160;&#160;ActionPlanState &#160;&#160;&#160;&#160;&#160;&#160;&#160;&#160;&#160;&#160;&#160;&#160;&#160;&#160;&#160;&#160;&#160;&#160;&#160;&#160;&#160;&#160;&#160;&#160;&#160;&#160;&#160;&#160;&#160;&#160;&#160;&#160;&#160;&#160;&#160;&#160;&#160;&#160;</text>
<polygon fill="none" stroke="#99ccff" points="1109.7563,-493.7616 1109.7563,-510.7616 1200.7563,-510.7616 1200.7563,-493.7616 1109.7563,-493.7616"/>
<text text-anchor="start" x="1115.6499" y="-498.9616" font-family="Courier,monospace" font-size="11.00" fill="#000000">picklist(40)</text>
<polygon fill="none" stroke="#99ccff" points="397.7563,-476.7616 397.7563,-493.7616 1109.7563,-493.7616 1109.7563,-476.7616 397.7563,-476.7616"/>
<text text-anchor="start" x="400.7563" y="-481.9616" font-family="Courier,monospace" font-size="11.00" fill="#000000"> &#160;&#160;&#160;&#160;&#160;&#160;&#160;&#160;&#160;&#160;&#160;&#160;&#160;&#160;&#160;&#160;&#160;&#160;&#160;&#160;&#160;&#160;&#160;&#160;&#160;&#160;&#160;&#160;&#160;&#160;&#160;&#160;&#160;&#160;&#160;&#160;&#160;&#160;&#160;&#160;StartDate &#160;&#160;&#160;&#160;&#160;&#160;&#160;&#160;&#160;&#160;&#160;&#160;&#160;&#160;&#160;&#160;&#160;&#160;&#160;&#160;&#160;&#160;&#160;&#160;&#160;&#160;&#160;&#160;&#160;&#160;&#160;&#160;&#160;&#160;&#160;&#160;&#160;&#160;</text>
<polygon fill="none" stroke="#99ccff" points="1109.7563,-476.7616 1109.7563,-493.7616 1200.7563,-493.7616 1200.7563,-476.7616 1109.7563,-476.7616"/>
<text text-anchor="start" x="1142.0542" y="-481.9616" font-family="Courier,monospace" font-size="11.00" fill="#000000">date</text>
<polygon fill="none" stroke="#99ccff" points="397.7563,-459.7616 397.7563,-476.7616 1109.7563,-476.7616 1109.7563,-459.7616 397.7563,-459.7616"/>
<text text-anchor="start" x="400.7563" y="-464.9616" font-family="Courier,monospace" font-size="11.00" fill="#000000"> &#160;&#160;&#160;&#160;&#160;&#160;&#160;&#160;&#160;&#160;&#160;&#160;&#160;&#160;&#160;&#160;&#160;&#160;&#160;&#160;&#160;&#160;&#160;&#160;&#160;&#160;&#160;&#160;&#160;&#160;&#160;&#160;&#160;&#160;&#160;&#160;&#160;&#160;&#160;&#160;IsUsingHolidayHours &#160;&#160;&#160;&#160;&#160;&#160;&#160;&#160;&#160;&#160;&#160;&#160;&#160;&#160;&#160;&#160;&#160;&#160;&#160;&#160;&#160;&#160;&#160;&#160;&#160;&#160;&#160;&#160;&#160;&#160;&#160;&#160;&#160;&#160;&#160;&#160;&#160;&#160;</text>
<polygon fill="none" stroke="#99ccff" points="1109.7563,-459.7616 1109.7563,-476.7616 1200.7563,-476.7616 1200.7563,-459.7616 1109.7563,-459.7616"/>
<text text-anchor="start" x="1132.1526" y="-464.9616" font-family="Courier,monospace" font-size="11.00" fill="#000000">boolean</text>
<polygon fill="none" stroke="#99ccff" points="396.2563,-458.7616 396.2563,-698.7616 1201.2563,-698.7616 1201.2563,-458.7616 396.2563,-458.7616"/>
</a>
</g>
</g>
<!-- Group -->
<g id="node2" class="node">
<title>Group</title>
<text text-anchor="middle" x="113.6172" y="-1015.4616" font-family="Courier,monospace" font-size="11.00" fill="#000000">Group</text>
</g>
<!-- ActionPlan&#45;&gt;Group -->
<g id="edge1" class="edge">
<title>ActionPlan:w&#45;&gt;Group:e</title>
<path fill="none" stroke="#ff99cc" d="M387.9884,-666.7968C369.5909,-722.1418 402.1512,-967.7816 379.2563,-991.7616 316.675,-1057.309 194.7575,-1038.4892 140.6277,-1025.933"/>
<polygon fill="#ff99cc" stroke="#ff99cc" points="392.4539,-661.7519 400.452,-658.1476 395.1051,-658.7567 397.7563,-655.7616 397.7563,-655.7616 397.7563,-655.7616 395.1051,-658.7567 395.0607,-653.3755 392.4539,-661.7519 392.4539,-661.7519"/>
<ellipse fill="none" stroke="#ff99cc" cx="390.3329" cy="-664.1481" rx="3.2" ry="3.2"/>
<text text-anchor="middle" x="311.7454" y="-1042.563" font-family="Monaco" font-size="9.00" fill="#000000">Owner</text>
</g>
<!-- User -->
<g id="node3" class="node">
<title>User</title>
<text text-anchor="middle" x="113.6172" y="-966.4616" font-family="Courier,monospace" font-size="11.00" fill="#000000">User</text>
</g>
<!-- ActionPlan&#45;&gt;User -->
<g id="edge2" class="edge">
<title>ActionPlan:w&#45;&gt;User:e</title>
<path fill="none" stroke="#ff99cc" d="M388.5291,-667.2131C373.0973,-719.3047 399.7419,-932.2412 379.2563,-952.7616 346.5255,-985.5481 202.1195,-977.4055 141.0443,-972.3339"/>
<polygon fill="#ff99cc" stroke="#ff99cc" points="392.7369,-661.9909 400.5596,-658.0203 395.2466,-658.8762 397.7563,-655.7616 397.7563,-655.7616 397.7563,-655.7616 395.2466,-658.8762 394.9531,-653.5028 392.7369,-661.9909 392.7369,-661.9909"/>
<ellipse fill="none" stroke="#ff99cc" cx="390.7291" cy="-664.4827" rx="3.2" ry="3.2"/>
<text text-anchor="middle" x="311.7454" y="-981.563" font-family="Monaco" font-size="9.00" fill="#000000">Owner</text>
</g>
<!-- ActionPlan&#45;&gt;User -->
<g id="edge3" class="edge">
<title>ActionPlan:w&#45;&gt;User:e</title>
<path fill="none" stroke="#ff99cc" d="M388.2423,-615.9054C371.1311,-669.6133 400.7625,-900.0952 379.2563,-922.7616 358.477,-944.6618 273.2872,-929.5544 244.2344,-937.7601 236.1981,-940.0299 235.1504,-943.1027 227.2344,-945.7616 198.3764,-955.4545 164.0326,-962.0628 140.7147,-965.853"/>
<polygon fill="#ff99cc" stroke="#ff99cc" points="392.5619,-610.8458 400.4943,-607.0991 395.1591,-607.8037 397.7563,-604.7616 397.7563,-604.7616 397.7563,-604.7616 395.1591,-607.8037 395.0184,-602.4241 392.5619,-610.8458 392.5619,-610.8458"/>
<ellipse fill="none" stroke="#ff99cc" cx="390.4841" cy="-613.2795" rx="3.2" ry="3.2"/>
<text text-anchor="middle" x="311.7454" y="-941.563" font-family="Monaco" font-size="9.00" fill="#000000">LastModifiedBy</text>
</g>
<!-- Account -->
<g id="node4" class="node">
<title>Account</title>
<text text-anchor="middle" x="113.6172" y="-917.4616" font-family="Courier,monospace" font-size="11.00" fill="#000000">Account</text>
</g>
<!-- ActionPlan&#45;&gt;Account -->
<g id="edge4" class="edge">
<title>ActionPlan:w&#45;&gt;Account:e</title>
<path fill="none" stroke="#ff99cc" d="M388.0018,-563.5591C369.1455,-618.8249 402.4207,-868.3929 379.2563,-892.7616 371.2589,-901.1748 213.2342,-913.5585 144.7863,-918.5532"/>
<polygon fill="#ff99cc" stroke="#ff99cc" points="392.3935,-558.6979 400.4277,-555.1749 395.0749,-555.7297 397.7563,-552.7616 397.7563,-552.7616 397.7563,-552.7616 395.0749,-555.7297 395.085,-550.3482 392.3935,-558.6979 392.3935,-558.6979"/>
<ellipse fill="none" stroke="#ff99cc" cx="390.2483" cy="-561.0724" rx="3.2" ry="3.2"/>
<text text-anchor="middle" x="311.7454" y="-914.563" font-family="Monaco" font-size="9.00" fill="#000000">Target</text>
</g>
<!-- BusinessMilestone -->
<g id="node5" class="node">
<title>BusinessMilestone</title>
<text text-anchor="middle" x="113.6172" y="-868.4616" font-family="Courier,monospace" font-size="11.00" fill="#000000">BusinessMilestone</text>
</g>
<!-- ActionPlan&#45;&gt;BusinessMilestone -->
<g id="edge5" class="edge">
<title>ActionPlan:w&#45;&gt;BusinessMilestone:e</title>
<path fill="none" stroke="#ff99cc" d="M388.4919,-564.054C372.6309,-616.4068 400.1211,-833.8399 379.2563,-854.7616 352.0083,-882.084 247.2671,-880.9936 177.7325,-876.9331"/>
<polygon fill="#ff99cc" stroke="#ff99cc" points="392.6822,-558.9464 400.5395,-555.0449 395.2192,-555.854 397.7563,-552.7616 397.7563,-552.7616 397.7563,-552.7616 395.2192,-555.854 394.9731,-550.4782 392.6822,-558.9464 392.6822,-558.9464"/>
<ellipse fill="none" stroke="#ff99cc" cx="390.6525" cy="-561.4204" rx="3.2" ry="3.2"/>
<text text-anchor="middle" x="311.7454" y="-883.563" font-family="Monaco" font-size="9.00" fill="#000000">Target</text>
</g>
<!-- Campaign -->
<g id="node6" class="node">
<title>Campaign</title>
<text text-anchor="middle" x="113.6172" y="-819.4616" font-family="Courier,monospace" font-size="11.00" fill="#000000">Campaign</text>
</g>
<!-- ActionPlan&#45;&gt;Campaign -->
<g id="edge6" class="edge">
<title>ActionPlan:w&#45;&gt;Campaign:e</title>
<path fill="none" stroke="#ff99cc" d="M389.3698,-564.5208C377.408,-610.8518 395.5383,-779.0622 379.2563,-795.7616 318.9033,-857.6618 205.5025,-843.7013 148.3777,-831.5589"/>
<polygon fill="#ff99cc" stroke="#ff99cc" points="393.1111,-559.2748 400.6873,-554.8519 395.4337,-556.0182 397.7563,-552.7616 397.7563,-552.7616 397.7563,-552.7616 395.4337,-556.0182 394.8254,-550.6712 393.1111,-559.2748 393.1111,-559.2748"/>
<ellipse fill="none" stroke="#ff99cc" cx="391.2531" cy="-561.8801" rx="3.2" ry="3.2"/>
<text text-anchor="middle" x="311.7454" y="-846.563" font-family="Monaco" font-size="9.00" fill="#000000">Target</text>
</g>
<!-- Case -->
<g id="node7" class="node">
<title>Case</title>
<text text-anchor="middle" x="113.6172" y="-770.4616" font-family="Courier,monospace" font-size="11.00" fill="#000000">Case</text>
</g>
<!-- ActionPlan&#45;&gt;Case -->
<g id="edge7" class="edge">
<title>ActionPlan:w&#45;&gt;Case:e</title>
<path fill="none" stroke="#ff99cc" d="M385.23,-560.2246C365.7033,-593.6271 407.7911,-728.9739 379.2563,-756.7616 346.066,-789.0828 201.9203,-781.2038 140.9796,-776.2683"/>
<polygon fill="#ff99cc" stroke="#ff99cc" points="390.8837,-556.8562 399.599,-555.8543 394.32,-554.8089 397.7563,-552.7616 397.7563,-552.7616 397.7563,-552.7616 394.32,-554.8089 395.9137,-549.6688 390.8837,-556.8562 390.8837,-556.8562"/>
<ellipse fill="none" stroke="#ff99cc" cx="388.1346" cy="-558.4941" rx="3.2" ry="3.2"/>
<text text-anchor="middle" x="311.7454" y="-785.563" font-family="Monaco" font-size="9.00" fill="#000000">Target</text>
</g>
<!-- Claim -->
<g id="node8" class="node">
<title>Claim</title>
<text text-anchor="middle" x="113.6172" y="-721.4616" font-family="Courier,monospace" font-size="11.00" fill="#000000">Claim</text>
</g>
<!-- ActionPlan&#45;&gt;Claim -->
<g id="edge8" class="edge">
<title>ActionPlan:w&#45;&gt;Claim:e</title>
<path fill="none" stroke="#ff99cc" d="M386.6089,-562.1301C375.9784,-591.3182 398.7692,-679.7966 379.2563,-698.7616 314.4593,-761.7394 194.2485,-743.86 140.6397,-731.7636"/>
<polygon fill="#ff99cc" stroke="#ff99cc" points="391.632,-557.9086 400.0725,-555.5175 394.6942,-555.3351 397.7563,-552.7616 397.7563,-552.7616 397.7563,-552.7616 394.6942,-555.3351 395.4402,-550.0056 391.632,-557.9086 391.632,-557.9086"/>
<ellipse fill="none" stroke="#ff99cc" cx="389.1822" cy="-559.9674" rx="3.2" ry="3.2"/>
<text text-anchor="middle" x="311.7454" y="-747.563" font-family="Monaco" font-size="9.00" fill="#000000">Target</text>
</g>
<!-- Contact -->
<g id="node9" class="node">
<title>Contact</title>
<text text-anchor="middle" x="113.6172" y="-672.4616" font-family="Courier,monospace" font-size="11.00" fill="#000000">Contact</text>
</g>
<!-- ActionPlan&#45;&gt;Contact -->
<g id="edge9" class="edge">
<title>ActionPlan:w&#45;&gt;Contact:e</title>
<path fill="none" stroke="#ff99cc" d="M384.3891,-558.5025C375.8053,-573.3873 400.9672,-613.4736 379.2563,-633.7616 314.6097,-694.1714 200.1142,-688.1601 144.9925,-680.9607"/>
<polygon fill="#ff99cc" stroke="#ff99cc" points="390.4056,-555.9186 399.177,-556.0694 394.081,-554.3401 397.7563,-552.7616 397.7563,-552.7616 397.7563,-552.7616 394.081,-554.3401 396.3357,-549.4537 390.4056,-555.9186 390.4056,-555.9186"/>
<ellipse fill="none" stroke="#ff99cc" cx="387.4653" cy="-557.1814" rx="3.2" ry="3.2"/>
<text text-anchor="middle" x="311.7454" y="-688.563" font-family="Monaco" font-size="9.00" fill="#000000">Target</text>
</g>
<!-- Contract -->
<g id="node10" class="node">
<title>Contract</title>
<text text-anchor="middle" x="113.6172" y="-623.4616" font-family="Courier,monospace" font-size="11.00" fill="#000000">Contract</text>
</g>
<!-- ActionPlan&#45;&gt;Contract -->
<g id="edge10" class="edge">
<title>ActionPlan:w&#45;&gt;Contract:e</title>
<path fill="none" stroke="#ff99cc" d="M387.3605,-563.1248C385.9326,-567.6878 384.3502,-572.6975 379.2563,-575.7616 305.6157,-620.0588 201.5161,-627.0859 148.1349,-627.4916"/>
<polygon fill="#ff99cc" stroke="#ff99cc" points="392.0906,-558.4096 400.2979,-555.3111 394.9235,-555.5856 397.7563,-552.7616 397.7563,-552.7616 397.7563,-552.7616 394.9235,-555.5856 395.2147,-550.212 392.0906,-558.4096 392.0906,-558.4096"/>
<ellipse fill="none" stroke="#ff99cc" cx="389.8243" cy="-560.6688" rx="3.2" ry="3.2"/>
<text text-anchor="middle" x="311.7454" y="-623.563" font-family="Monaco" font-size="9.00" fill="#000000">Target</text>
</g>
<!-- FinServ__AssetsAndLiabilities__c -->
<g id="node11" class="node">
<title>FinServ__AssetsAndLiabilities__c</title>
<text text-anchor="middle" x="113.6172" y="-574.4616" font-family="Courier,monospace" font-size="11.00" fill="#000000">FinServ__AssetsAndLiabilities__c</text>
</g>
<!-- ActionPlan&#45;&gt;FinServ__AssetsAndLiabilities__c -->
<g id="edge11" class="edge">
<title>ActionPlan:w&#45;&gt;FinServ__AssetsAndLiabilities__c:e</title>
<path fill="none" stroke="#ff99cc" d="M383.143,-552.8677C330.9334,-553.6103 274.8752,-558.1459 227.4786,-563.1466"/>
<polygon fill="#ff99cc" stroke="#ff99cc" points="389.7566,-552.8197 397.7825,-556.3615 393.7565,-552.7906 397.7563,-552.7616 397.7563,-552.7616 397.7563,-552.7616 393.7565,-552.7906 397.7302,-549.1616 389.7566,-552.8197 389.7566,-552.8197"/>
<ellipse fill="none" stroke="#ff99cc" cx="386.5566" cy="-552.843" rx="3.2" ry="3.2"/>
<text text-anchor="middle" x="311.7454" y="-565.563" font-family="Monaco" font-size="9.00" fill="#000000">Target</text>
</g>
<!-- FinServ__Card__c -->
<g id="node12" class="node">
<title>FinServ__Card__c</title>
<text text-anchor="middle" x="113.6172" y="-525.4616" font-family="Courier,monospace" font-size="11.00" fill="#000000">FinServ__Card__c</text>
</g>
<!-- ActionPlan&#45;&gt;FinServ__Card__c -->
<g id="edge12" class="edge">
<title>ActionPlan:w&#45;&gt;FinServ__Card__c:e</title>
<path fill="none" stroke="#ff99cc" d="M386.4669,-543.8194C384.8443,-541.4037 382.8199,-539.0917 379.2563,-537.7601 312.4734,-512.8053 229.5455,-514.6942 174.2846,-520.1149"/>
<polygon fill="#ff99cc" stroke="#ff99cc" points="391.4852,-547.7943 395.5211,-555.5835 394.6208,-550.2779 397.7563,-552.7616 397.7563,-552.7616 397.7563,-552.7616 394.6208,-550.2779 399.9916,-549.9396 391.4852,-547.7943 391.4852,-547.7943"/>
<ellipse fill="none" stroke="#ff99cc" cx="388.9768" cy="-545.8074" rx="3.2" ry="3.2"/>
<text text-anchor="middle" x="311.7454" y="-541.563" font-family="Monaco" font-size="9.00" fill="#000000">Target</text>
</g>
<!-- FinServ__FinancialAccount__c -->
<g id="node13" class="node">
<title>FinServ__FinancialAccount__c</title>
<text text-anchor="middle" x="113.6172" y="-476.4616" font-family="Courier,monospace" font-size="11.00" fill="#000000">FinServ__FinancialAccount__c</text>
</g>
<!-- ActionPlan&#45;&gt;FinServ__FinancialAccount__c -->
<g id="edge13" class="edge">
<title>ActionPlan:w&#45;&gt;FinServ__FinancialAccount__c:e</title>
<path fill="none" stroke="#ff99cc" d="M386.5172,-543.7063C384.7718,-531.7509 392.6419,-511.0193 379.2563,-500.7601 333.084,-465.3716 268.1768,-459.6828 214.0811,-463.0549"/>
<polygon fill="#ff99cc" stroke="#ff99cc" points="391.5267,-547.7424 395.4977,-555.5649 394.6415,-550.252 397.7563,-552.7616 397.7563,-552.7616 397.7563,-552.7616 394.6415,-550.252 400.015,-549.9582 391.5267,-547.7424 391.5267,-547.7424"/>
<ellipse fill="none" stroke="#ff99cc" cx="389.0348" cy="-545.7347" rx="3.2" ry="3.2"/>
<text text-anchor="middle" x="311.7454" y="-504.563" font-family="Monaco" font-size="9.00" fill="#000000">Target</text>
</g>
<!-- FinServ__FinancialGoal__c -->
<g id="node14" class="node">
<title>FinServ__FinancialGoal__c</title>
<text text-anchor="middle" x="113.6172" y="-427.4616" font-family="Courier,monospace" font-size="11.00" fill="#000000">FinServ__FinancialGoal__c</text>
</g>
<!-- ActionPlan&#45;&gt;FinServ__FinancialGoal__c -->
<g id="edge14" class="edge">
<title>ActionPlan:w&#45;&gt;FinServ__FinancialGoal__c:e</title>
<path fill="none" stroke="#ff99cc" d="M383.6798,-548.6868C366.2205,-532.7453 409.9071,-474.1394 379.2563,-446.7601 328.0024,-400.9767 246.6249,-402.9971 187.4352,-412.7257"/>
<polygon fill="#ff99cc" stroke="#ff99cc" points="390.0718,-550.537 396.7553,-556.2196 393.9141,-551.6493 397.7563,-552.7616 397.7563,-552.7616 397.7563,-552.7616 393.9141,-551.6493 398.7574,-549.3035 390.0718,-550.537 390.0718,-550.537"/>
<ellipse fill="none" stroke="#ff99cc" cx="386.998" cy="-549.6472" rx="3.2" ry="3.2"/>
<text text-anchor="middle" x="311.7454" y="-450.563" font-family="Monaco" font-size="9.00" fill="#000000">Target</text>
</g>
<!-- FinServ__FinancialHolding__c -->
<g id="node15" class="node">
<title>FinServ__FinancialHolding__c</title>
<text text-anchor="middle" x="113.6172" y="-378.4616" font-family="Courier,monospace" font-size="11.00" fill="#000000">FinServ__FinancialHolding__c</text>
</g>
<!-- ActionPlan&#45;&gt;FinServ__FinancialHolding__c -->
<g id="edge15" class="edge">
<title>ActionPlan:w&#45;&gt;FinServ__FinancialHolding__c:e</title>
<path fill="none" stroke="#ff99cc" d="M386.1574,-543.7099C373.7555,-512.8311 401.5516,-412.406 379.2563,-391.7601 355.68,-369.9279 279.1558,-368.8884 214.2608,-372.4811"/>
<polygon fill="#ff99cc" stroke="#ff99cc" points="391.4495,-547.8398 395.5416,-555.5996 394.6029,-550.3007 397.7563,-552.7616 397.7563,-552.7616 397.7563,-552.7616 394.6029,-550.3007 399.9711,-549.9235 391.4495,-547.8398 391.4495,-547.8398"/>
<ellipse fill="none" stroke="#ff99cc" cx="388.9267" cy="-545.8711" rx="3.2" ry="3.2"/>
<text text-anchor="middle" x="311.7454" y="-395.563" font-family="Monaco" font-size="9.00" fill="#000000">Target</text>
</g>
<!-- InsurancePolicy -->
<g id="node16" class="node">
<title>InsurancePolicy</title>
<text text-anchor="middle" x="113.6172" y="-329.4616" font-family="Courier,monospace" font-size="11.00" fill="#000000">InsurancePolicy</text>
</g>
<!-- ActionPlan&#45;&gt;InsurancePolicy -->
<g id="edge16" class="edge">
<title>ActionPlan:w&#45;&gt;InsurancePolicy:e</title>
<path fill="none" stroke="#ff99cc" d="M385.3655,-545.1301C366.937,-512.2028 406.4387,-382.7455 379.2563,-355.7601 325.4627,-302.3562 231.8008,-307.8619 171.2837,-318.7645"/>
<polygon fill="#ff99cc" stroke="#ff99cc" points="390.9446,-548.5662 395.8685,-555.8268 394.3505,-550.6639 397.7563,-552.7616 397.7563,-552.7616 397.7563,-552.7616 394.3505,-550.6639 399.6442,-549.6963 390.9446,-548.5662 390.9446,-548.5662"/>
<ellipse fill="none" stroke="#ff99cc" cx="388.2199" cy="-546.8881" rx="3.2" ry="3.2"/>
<text text-anchor="middle" x="311.7454" y="-359.563" font-family="Monaco" font-size="9.00" fill="#000000">Target</text>
</g>
<!-- InsurancePolicyCoverage -->
<g id="node17" class="node">
<title>InsurancePolicyCoverage</title>
<text text-anchor="middle" x="113.6172" y="-280.4616" font-family="Courier,monospace" font-size="11.00" fill="#000000">InsurancePolicyCoverage</text>
</g>
<!-- ActionPlan&#45;&gt;InsurancePolicyCoverage -->
<g id="edge17" class="edge">
<title>ActionPlan:w&#45;&gt;InsurancePolicyCoverage:e</title>
<path fill="none" stroke="#ff99cc" d="M389.1407,-540.9583C376.4568,-492.8168 397.0048,-313.0405 379.2563,-295.7601 354.2007,-271.3652 265.7677,-271.6418 197.7454,-275.9325"/>
<polygon fill="#ff99cc" stroke="#ff99cc" points="393.0397,-546.2999 394.8486,-554.8841 395.398,-549.5307 397.7563,-552.7616 397.7563,-552.7616 397.7563,-552.7616 395.398,-549.5307 400.6641,-550.639 393.0397,-546.2999 393.0397,-546.2999"/>
<ellipse fill="none" stroke="#ff99cc" cx="391.153" cy="-543.7152" rx="3.2" ry="3.2"/>
<text text-anchor="middle" x="311.7454" y="-299.563" font-family="Monaco" font-size="9.00" fill="#000000">Target</text>
</g>
<!-- Lead -->
<g id="node18" class="node">
<title>Lead</title>
<text text-anchor="middle" x="113.6172" y="-231.4616" font-family="Courier,monospace" font-size="11.00" fill="#000000">Lead</text>
</g>
<!-- ActionPlan&#45;&gt;Lead -->
<g id="edge18" class="edge">
<title>ActionPlan:w&#45;&gt;Lead:e</title>
<path fill="none" stroke="#ff99cc" d="M388.5755,-541.3972C373.1784,-489.701 399.3788,-278.3658 379.2563,-257.7601 316.1903,-193.1792 195.0735,-213.6392 140.9345,-227.0564"/>
<polygon fill="#ff99cc" stroke="#ff99cc" points="392.729,-546.5385 394.956,-555.0239 395.2427,-549.65 397.7563,-552.7616 397.7563,-552.7616 397.7563,-552.7616 395.2427,-549.65 400.5567,-550.4992 392.729,-546.5385 392.729,-546.5385"/>
<ellipse fill="none" stroke="#ff99cc" cx="390.718" cy="-544.0493" rx="3.2" ry="3.2"/>
<text text-anchor="middle" x="311.7454" y="-261.563" font-family="Monaco" font-size="9.00" fill="#000000">Target</text>
</g>
<!-- Opportunity -->
<g id="node19" class="node">
<title>Opportunity</title>
<text text-anchor="middle" x="113.6172" y="-182.4616" font-family="Courier,monospace" font-size="11.00" fill="#000000">Opportunity</text>
</g>
<!-- ActionPlan&#45;&gt;Opportunity -->
<g id="edge19" class="edge">
<title>ActionPlan:w&#45;&gt;Opportunity:e</title>
<path fill="none" stroke="#ff99cc" d="M387.8867,-542.2121C367.9016,-485.9255 404.2717,-222.6028 379.2563,-197.7601 349.1614,-167.8729 225.4122,-174.7085 157.9587,-180.9475"/>
<polygon fill="#ff99cc" stroke="#ff99cc" points="392.2908,-546.9196 395.1275,-555.221 395.0236,-549.8406 397.7563,-552.7616 397.7563,-552.7616 397.7563,-552.7616 395.0236,-549.8406 400.3852,-550.3021 392.2908,-546.9196 392.2908,-546.9196"/>
<ellipse fill="none" stroke="#ff99cc" cx="390.1046" cy="-544.5828" rx="3.2" ry="3.2"/>
<text text-anchor="middle" x="311.7454" y="-201.563" font-family="Monaco" font-size="9.00" fill="#000000">Target</text>
</g>
<!-- PersonLifeEvent -->
<g id="node20" class="node">
<title>PersonLifeEvent</title>
<text text-anchor="middle" x="113.6172" y="-133.4616" font-family="Courier,monospace" font-size="11.00" fill="#000000">PersonLifeEvent</text>
</g>
<!-- ActionPlan&#45;&gt;PersonLifeEvent -->
<g id="edge20" class="edge">
<title>ActionPlan:w&#45;&gt;PersonLifeEvent:e</title>
<path fill="none" stroke="#ff99cc" d="M387.4638,-542.6849C364.2489,-484.0203 406.536,-188.1342 379.2563,-159.7601 326.561,-104.9507 232.1334,-111.0055 171.2168,-122.3858"/>
<polygon fill="#ff99cc" stroke="#ff99cc" points="392.0398,-547.1649 395.2379,-555.334 394.8981,-549.9632 397.7563,-552.7616 397.7563,-552.7616 397.7563,-552.7616 394.8981,-549.9632 400.2748,-550.1891 392.0398,-547.1649 392.0398,-547.1649"/>
<ellipse fill="none" stroke="#ff99cc" cx="389.7532" cy="-544.9263" rx="3.2" ry="3.2"/>
<text text-anchor="middle" x="311.7454" y="-163.563" font-family="Monaco" font-size="9.00" fill="#000000">Target</text>
</g>
<!-- ResidentialLoanApplication -->
<g id="node21" class="node">
<title>ResidentialLoanApplication</title>
<text text-anchor="middle" x="113.6172" y="-84.4616" font-family="Courier,monospace" font-size="11.00" fill="#000000">ResidentialLoanApplication</text>
</g>
<!-- ActionPlan&#45;&gt;ResidentialLoanApplication -->
<g id="edge21" class="edge">
<title>ActionPlan:w&#45;&gt;ResidentialLoanApplication:e</title>
<path fill="none" stroke="#ff99cc" d="M391.4167,-539.6888C377.1487,-466.9479 395.2531,-114.7673 379.2563,-98.7601 355.6829,-75.1713 274.0871,-74.7078 207.4814,-78.7789"/>
<polygon fill="#ff99cc" stroke="#ff99cc" points="394.2655,-545.5633 394.5171,-554.3324 396.0109,-549.1624 397.7563,-552.7616 397.7563,-552.7616 397.7563,-552.7616 396.0109,-549.1624 400.9955,-551.1907 394.2655,-545.5633 394.2655,-545.5633"/>
<ellipse fill="none" stroke="#ff99cc" cx="392.8692" cy="-542.684" rx="3.2" ry="3.2"/>
<text text-anchor="middle" x="311.7454" y="-102.563" font-family="Monaco" font-size="9.00" fill="#000000">Target</text>
</g>
<!-- ActionPlanTemplateVersion -->
<g id="node22" class="node">
<title>ActionPlanTemplateVersion</title>
<text text-anchor="middle" x="113.6172" y="-35.4616" font-family="Courier,monospace" font-size="11.00" fill="#000000">ActionPlanTemplateVersion</text>
</g>
<!-- ActionPlan&#45;&gt;ActionPlanTemplateVersion -->
<g id="edge22" class="edge">
<title>ActionPlan:w&#45;&gt;ActionPlanTemplateVersion:e</title>
<path fill="none" stroke="#ff99cc" d="M391.2585,-522.6457C376.2679,-448.0411 395.5317,-79.8875 379.2563,-62.7601 333.4037,-14.5069 255.2874,-12.8774 195.5988,-20.7256"/>
<polygon fill="#ff99cc" stroke="#ff99cc" points="394.2049,-528.593 394.5305,-537.3597 395.9806,-532.1773 397.7563,-535.7616 397.7563,-535.7616 397.7563,-535.7616 395.9806,-532.1773 400.9822,-534.1634 394.2049,-528.593 394.2049,-528.593"/>
<ellipse fill="none" stroke="#ff99cc" cx="392.7844" cy="-525.7256" rx="3.2" ry="3.2"/>
<text text-anchor="middle" x="311.7454" y="-67.563" font-family="Monaco" font-size="9.00" fill="#000000">ActionPlanTemplateVersion</text>
</g>
</g>
</svg>
