<?xml version="1.0" encoding="UTF-8" standalone="no"?>
<!DOCTYPE svg PUBLIC "-//W3C//DTD SVG 1.1//EN"
 "http://www.w3.org/Graphics/SVG/1.1/DTD/svg11.dtd">
<!-- Generated by graphviz version 2.40.1 (20161225.0304)
 -->
<!-- Title: Salesforce+ ERD Pages: 1 -->
<svg width="1860pt" height="352pt"
 viewBox="0.00 0.00 1859.83 351.50" xmlns="http://www.w3.org/2000/svg" xmlns:xlink="http://www.w3.org/1999/xlink">
<g id="graph0" class="graph" transform="scale(1 1) rotate(0) translate(4 347.5)">
<title>Salesforce+ ERD</title>
<polygon fill="#efeffd" stroke="transparent" points="-4,4 -4,-347.5 1855.8281,-347.5 1855.8281,4 -4,4"/>
<text text-anchor="middle" x="1803.3215" y="-5.8" font-family="Courier,monospace" font-size="9.00" fill="#000000">Salesforce ERD </text>
<!-- ActionPlanTemplate -->
<g id="node1" class="node">
<title>ActionPlanTemplate</title>
<g id="a_node1"><a xlink:href="#" xlink:title=" ActionPlanTemplate ">
<polygon fill="#ffeeff" stroke="transparent" points="163.6123,-17 163.6123,-240 961.6123,-240 961.6123,-17 163.6123,-17"/>
<polygon fill="#add8e6" stroke="transparent" points="164.6123,-221.5 164.6123,-238.5 960.6123,-238.5 960.6123,-221.5 164.6123,-221.5"/>
<polygon fill="none" stroke="#99ccff" points="164.6123,-221.5 164.6123,-238.5 960.6123,-238.5 960.6123,-221.5 164.6123,-221.5"/>
<text text-anchor="start" x="503.2026" y="-227.7" font-family="Courier,monospace" font-weight="bold" font-size="11.00" fill="#000000">ActionPlanTemplate</text>
<polygon fill="#99ccff" stroke="transparent" points="164.6123,-204.5 164.6123,-221.5 869.6123,-221.5 869.6123,-204.5 164.6123,-204.5"/>
<polygon fill="none" stroke="#99ccff" points="164.6123,-204.5 164.6123,-221.5 869.6123,-221.5 869.6123,-204.5 164.6123,-204.5"/>
<text text-anchor="start" x="167.6123" y="-210.7" font-family="Courier,monospace" font-size="11.00" fill="#000000"> &#160;&#160;&#160;&#160;&#160;&#160;&#160;&#160;&#160;&#160;&#160;&#160;&#160;&#160;&#160;&#160;&#160;&#160;&#160;&#160;&#160;&#160;&#160;&#160;&#160;&#160;&#160;&#160;&#160;&#160;&#160;&#160;&#160;&#160;&#160;&#160;&#160;&#160;&#160;&#160;&#160;&#160;</text>
<text text-anchor="start" x="451.4585" y="-210.7" font-family="Courier,monospace" font-weight="bold" font-size="11.00" fill="#000000">Id</text>
<text text-anchor="start" x="464.6606" y="-210.7" font-family="Courier,monospace" font-size="11.00" fill="#000000"> &#160;&#160;&#160;&#160;&#160;&#160;&#160;&#160;&#160;&#160;&#160;&#160;&#160;&#160;&#160;&#160;&#160;&#160;&#160;&#160;&#160;&#160;&#160;&#160;&#160;&#160;&#160;&#160;&#160;&#160;&#160;&#160;&#160;&#160;&#160;&#160;&#160;&#160;&#160;</text>
<polygon fill="none" stroke="#99ccff" points="869.6123,-204.5 869.6123,-221.5 960.6123,-221.5 960.6123,-204.5 869.6123,-204.5"/>
<text text-anchor="start" x="895.3091" y="-209.7" font-family="Courier,monospace" font-size="11.00" fill="#000000">id(18)</text>
<polygon fill="none" stroke="#99ccff" points="164.6123,-187.5 164.6123,-204.5 869.6123,-204.5 869.6123,-187.5 164.6123,-187.5"/>
<text text-anchor="start" x="167.6123" y="-192.7" font-family="Courier,monospace" font-size="11.00" fill="#000000"> &#160;&#160;&#160;&#160;&#160;&#160;&#160;&#160;&#160;&#160;&#160;&#160;&#160;&#160;&#160;&#160;&#160;&#160;&#160;&#160;&#160;&#160;&#160;&#160;&#160;&#160;&#160;&#160;&#160;&#160;&#160;&#160;&#160;&#160;&#160;&#160;&#160;&#160;&#160;&#160;OwnerId &#160;&#160;&#160;&#160;&#160;&#160;&#160;&#160;&#160;&#160;&#160;&#160;&#160;&#160;&#160;&#160;&#160;&#160;&#160;&#160;&#160;&#160;&#160;&#160;&#160;&#160;&#160;&#160;&#160;&#160;&#160;&#160;&#160;&#160;&#160;&#160;&#160;&#160;</text>
<polygon fill="none" stroke="#99ccff" points="869.6123,-187.5 869.6123,-204.5 960.6123,-204.5 960.6123,-187.5 869.6123,-187.5"/>
<text text-anchor="start" x="872.2053" y="-192.7" font-family="Courier,monospace" font-size="11.00" fill="#000000">reference(18)</text>
<polygon fill="none" stroke="#99ccff" points="164.6123,-170.5 164.6123,-187.5 869.6123,-187.5 869.6123,-170.5 164.6123,-170.5"/>
<text text-anchor="start" x="167.6123" y="-175.7" font-family="Courier,monospace" font-size="11.00" fill="#000000"> &#160;&#160;&#160;&#160;&#160;&#160;&#160;&#160;&#160;&#160;&#160;&#160;&#160;&#160;&#160;&#160;&#160;&#160;&#160;&#160;&#160;&#160;&#160;&#160;&#160;&#160;&#160;&#160;&#160;&#160;&#160;&#160;&#160;&#160;&#160;&#160;&#160;&#160;&#160;&#160;IsDeleted &#160;&#160;&#160;&#160;&#160;&#160;&#160;&#160;&#160;&#160;&#160;&#160;&#160;&#160;&#160;&#160;&#160;&#160;&#160;&#160;&#160;&#160;&#160;&#160;&#160;&#160;&#160;&#160;&#160;&#160;&#160;&#160;&#160;&#160;&#160;&#160;&#160;&#160;</text>
<polygon fill="none" stroke="#99ccff" points="869.6123,-170.5 869.6123,-187.5 960.6123,-187.5 960.6123,-170.5 869.6123,-170.5"/>
<text text-anchor="start" x="892.0085" y="-175.7" font-family="Courier,monospace" font-size="11.00" fill="#000000">boolean</text>
<polygon fill="none" stroke="#99ccff" points="164.6123,-153.5 164.6123,-170.5 869.6123,-170.5 869.6123,-153.5 164.6123,-153.5"/>
<text text-anchor="start" x="167.6123" y="-158.7" font-family="Courier,monospace" font-size="11.00" fill="#000000"> &#160;&#160;&#160;&#160;&#160;&#160;&#160;&#160;&#160;&#160;&#160;&#160;&#160;&#160;&#160;&#160;&#160;&#160;&#160;&#160;&#160;&#160;&#160;&#160;&#160;&#160;&#160;&#160;&#160;&#160;&#160;&#160;&#160;&#160;&#160;&#160;&#160;&#160;&#160;&#160;Name &#160;&#160;&#160;&#160;&#160;&#160;&#160;&#160;&#160;&#160;&#160;&#160;&#160;&#160;&#160;&#160;&#160;&#160;&#160;&#160;&#160;&#160;&#160;&#160;&#160;&#160;&#160;&#160;&#160;&#160;&#160;&#160;&#160;&#160;&#160;&#160;&#160;&#160;</text>
<polygon fill="none" stroke="#99ccff" points="869.6123,-153.5 869.6123,-170.5 960.6123,-170.5 960.6123,-153.5 869.6123,-153.5"/>
<text text-anchor="start" x="878.8064" y="-158.7" font-family="Courier,monospace" font-size="11.00" fill="#000000">string(255)</text>
<polygon fill="none" stroke="#99ccff" points="164.6123,-136.5 164.6123,-153.5 869.6123,-153.5 869.6123,-136.5 164.6123,-136.5"/>
<text text-anchor="start" x="167.6123" y="-141.7" font-family="Courier,monospace" font-size="11.00" fill="#000000"> &#160;&#160;&#160;&#160;&#160;&#160;&#160;&#160;&#160;&#160;&#160;&#160;&#160;&#160;&#160;&#160;&#160;&#160;&#160;&#160;&#160;&#160;&#160;&#160;&#160;&#160;&#160;&#160;&#160;&#160;&#160;&#160;&#160;&#160;&#160;&#160;&#160;&#160;&#160;&#160;LastModifiedById &#160;&#160;&#160;&#160;&#160;&#160;&#160;&#160;&#160;&#160;&#160;&#160;&#160;&#160;&#160;&#160;&#160;&#160;&#160;&#160;&#160;&#160;&#160;&#160;&#160;&#160;&#160;&#160;&#160;&#160;&#160;&#160;&#160;&#160;&#160;&#160;&#160;&#160;</text>
<polygon fill="none" stroke="#99ccff" points="869.6123,-136.5 869.6123,-153.5 960.6123,-153.5 960.6123,-136.5 869.6123,-136.5"/>
<text text-anchor="start" x="872.2053" y="-141.7" font-family="Courier,monospace" font-size="11.00" fill="#000000">reference(18)</text>
<polygon fill="none" stroke="#99ccff" points="164.6123,-119.5 164.6123,-136.5 869.6123,-136.5 869.6123,-119.5 164.6123,-119.5"/>
<text text-anchor="start" x="167.6123" y="-124.7" font-family="Courier,monospace" font-size="11.00" fill="#000000"> &#160;&#160;&#160;&#160;&#160;&#160;&#160;&#160;&#160;&#160;&#160;&#160;&#160;&#160;&#160;&#160;&#160;&#160;&#160;&#160;&#160;&#160;&#160;&#160;&#160;&#160;&#160;&#160;&#160;&#160;&#160;&#160;&#160;&#160;&#160;&#160;&#160;&#160;&#160;&#160;LastViewedDate &#160;&#160;&#160;&#160;&#160;&#160;&#160;&#160;&#160;&#160;&#160;&#160;&#160;&#160;&#160;&#160;&#160;&#160;&#160;&#160;&#160;&#160;&#160;&#160;&#160;&#160;&#160;&#160;&#160;&#160;&#160;&#160;&#160;&#160;&#160;&#160;&#160;&#160;</text>
<polygon fill="none" stroke="#99ccff" points="869.6123,-119.5 869.6123,-136.5 960.6123,-136.5 960.6123,-119.5 869.6123,-119.5"/>
<text text-anchor="start" x="888.708" y="-124.7" font-family="Courier,monospace" font-size="11.00" fill="#000000">datetime</text>
<polygon fill="none" stroke="#99ccff" points="164.6123,-102.5 164.6123,-119.5 869.6123,-119.5 869.6123,-102.5 164.6123,-102.5"/>
<text text-anchor="start" x="167.6123" y="-107.7" font-family="Courier,monospace" font-size="11.00" fill="#000000"> &#160;&#160;&#160;&#160;&#160;&#160;&#160;&#160;&#160;&#160;&#160;&#160;&#160;&#160;&#160;&#160;&#160;&#160;&#160;&#160;&#160;&#160;&#160;&#160;&#160;&#160;&#160;&#160;&#160;&#160;&#160;&#160;&#160;&#160;&#160;&#160;&#160;&#160;&#160;&#160;LastReferencedDate &#160;&#160;&#160;&#160;&#160;&#160;&#160;&#160;&#160;&#160;&#160;&#160;&#160;&#160;&#160;&#160;&#160;&#160;&#160;&#160;&#160;&#160;&#160;&#160;&#160;&#160;&#160;&#160;&#160;&#160;&#160;&#160;&#160;&#160;&#160;&#160;&#160;&#160;</text>
<polygon fill="none" stroke="#99ccff" points="869.6123,-102.5 869.6123,-119.5 960.6123,-119.5 960.6123,-102.5 869.6123,-102.5"/>
<text text-anchor="start" x="888.708" y="-107.7" font-family="Courier,monospace" font-size="11.00" fill="#000000">datetime</text>
<polygon fill="none" stroke="#99ccff" points="164.6123,-85.5 164.6123,-102.5 869.6123,-102.5 869.6123,-85.5 164.6123,-85.5"/>
<text text-anchor="start" x="167.6123" y="-90.7" font-family="Courier,monospace" font-size="11.00" fill="#000000"> &#160;&#160;&#160;&#160;&#160;&#160;&#160;&#160;&#160;&#160;&#160;&#160;&#160;&#160;&#160;&#160;&#160;&#160;&#160;&#160;&#160;&#160;&#160;&#160;&#160;&#160;&#160;&#160;&#160;&#160;&#160;&#160;&#160;&#160;&#160;&#160;&#160;&#160;&#160;&#160;ActionPlanType &#160;&#160;&#160;&#160;&#160;&#160;&#160;&#160;&#160;&#160;&#160;&#160;&#160;&#160;&#160;&#160;&#160;&#160;&#160;&#160;&#160;&#160;&#160;&#160;&#160;&#160;&#160;&#160;&#160;&#160;&#160;&#160;&#160;&#160;&#160;&#160;&#160;&#160;</text>
<polygon fill="none" stroke="#99ccff" points="869.6123,-85.5 869.6123,-102.5 960.6123,-102.5 960.6123,-85.5 869.6123,-85.5"/>
<text text-anchor="start" x="872.2053" y="-90.7" font-family="Courier,monospace" font-size="11.00" fill="#000000">picklist(255)</text>
<polygon fill="none" stroke="#99ccff" points="164.6123,-68.5 164.6123,-85.5 869.6123,-85.5 869.6123,-68.5 164.6123,-68.5"/>
<text text-anchor="start" x="167.6123" y="-73.7" font-family="Courier,monospace" font-size="11.00" fill="#000000"> &#160;&#160;&#160;&#160;&#160;&#160;&#160;&#160;&#160;&#160;&#160;&#160;&#160;&#160;&#160;&#160;&#160;&#160;&#160;&#160;&#160;&#160;&#160;&#160;&#160;&#160;&#160;&#160;&#160;&#160;&#160;&#160;&#160;&#160;&#160;&#160;&#160;&#160;&#160;&#160;TargetEntityType &#160;&#160;&#160;&#160;&#160;&#160;&#160;&#160;&#160;&#160;&#160;&#160;&#160;&#160;&#160;&#160;&#160;&#160;&#160;&#160;&#160;&#160;&#160;&#160;&#160;&#160;&#160;&#160;&#160;&#160;&#160;&#160;&#160;&#160;&#160;&#160;&#160;&#160;</text>
<polygon fill="none" stroke="#99ccff" points="869.6123,-68.5 869.6123,-85.5 960.6123,-85.5 960.6123,-68.5 869.6123,-68.5"/>
<text text-anchor="start" x="872.2053" y="-73.7" font-family="Courier,monospace" font-size="11.00" fill="#000000">picklist(255)</text>
<polygon fill="none" stroke="#99ccff" points="164.6123,-51.5 164.6123,-68.5 869.6123,-68.5 869.6123,-51.5 164.6123,-51.5"/>
<text text-anchor="start" x="167.6123" y="-56.7" font-family="Courier,monospace" font-size="11.00" fill="#000000"> &#160;&#160;&#160;&#160;&#160;&#160;&#160;&#160;&#160;&#160;&#160;&#160;&#160;&#160;&#160;&#160;&#160;&#160;&#160;&#160;&#160;&#160;&#160;&#160;&#160;&#160;&#160;&#160;&#160;&#160;&#160;&#160;&#160;&#160;&#160;&#160;&#160;&#160;&#160;&#160;Description &#160;&#160;&#160;&#160;&#160;&#160;&#160;&#160;&#160;&#160;&#160;&#160;&#160;&#160;&#160;&#160;&#160;&#160;&#160;&#160;&#160;&#160;&#160;&#160;&#160;&#160;&#160;&#160;&#160;&#160;&#160;&#160;&#160;&#160;&#160;&#160;&#160;&#160;</text>
<polygon fill="none" stroke="#99ccff" points="869.6123,-51.5 869.6123,-68.5 960.6123,-68.5 960.6123,-51.5 869.6123,-51.5"/>
<text text-anchor="start" x="872.2053" y="-56.7" font-family="Courier,monospace" font-size="11.00" fill="#000000">textarea(255)</text>
<polygon fill="none" stroke="#99ccff" points="164.6123,-34.5 164.6123,-51.5 869.6123,-51.5 869.6123,-34.5 164.6123,-34.5"/>
<text text-anchor="start" x="167.6123" y="-39.7" font-family="Courier,monospace" font-size="11.00" fill="#000000"> &#160;&#160;&#160;&#160;&#160;&#160;&#160;&#160;&#160;&#160;&#160;&#160;&#160;&#160;&#160;&#160;&#160;&#160;&#160;&#160;&#160;&#160;&#160;&#160;&#160;&#160;&#160;&#160;&#160;&#160;&#160;&#160;&#160;&#160;&#160;&#160;&#160;&#160;&#160;&#160;UniqueName &#160;&#160;&#160;&#160;&#160;&#160;&#160;&#160;&#160;&#160;&#160;&#160;&#160;&#160;&#160;&#160;&#160;&#160;&#160;&#160;&#160;&#160;&#160;&#160;&#160;&#160;&#160;&#160;&#160;&#160;&#160;&#160;&#160;&#160;&#160;&#160;&#160;&#160;</text>
<polygon fill="none" stroke="#99ccff" points="869.6123,-34.5 869.6123,-51.5 960.6123,-51.5 960.6123,-34.5 869.6123,-34.5"/>
<text text-anchor="start" x="882.1069" y="-39.7" font-family="Courier,monospace" font-size="11.00" fill="#000000">string(80)</text>
<polygon fill="none" stroke="#99ccff" points="164.6123,-17.5 164.6123,-34.5 869.6123,-34.5 869.6123,-17.5 164.6123,-17.5"/>
<text text-anchor="start" x="167.2554" y="-22.7" font-family="Courier,monospace" font-size="11.00" fill="#000000"> &#160;&#160;&#160;&#160;&#160;&#160;&#160;&#160;&#160;&#160;&#160;&#160;&#160;&#160;&#160;&#160;&#160;&#160;&#160;&#160;&#160;&#160;&#160;&#160;&#160;&#160;&#160;&#160;&#160;&#160;&#160;&#160;&#160;&#160;&#160;&#160;&#160;&#160;&#160;&#160;IsAdHocItemCreationEnabled &#160;&#160;&#160;&#160;&#160;&#160;&#160;&#160;&#160;&#160;&#160;&#160;&#160;&#160;&#160;&#160;&#160;&#160;&#160;&#160;&#160;&#160;&#160;&#160;&#160;&#160;&#160;&#160;&#160;&#160;&#160;&#160;&#160;&#160;&#160;&#160;&#160;&#160;</text>
<polygon fill="none" stroke="#99ccff" points="869.6123,-17.5 869.6123,-34.5 960.6123,-34.5 960.6123,-17.5 869.6123,-17.5"/>
<text text-anchor="start" x="892.0085" y="-22.7" font-family="Courier,monospace" font-size="11.00" fill="#000000">boolean</text>
<polygon fill="none" stroke="#99ccff" points="163.6123,-17 163.6123,-240 961.6123,-240 961.6123,-17 163.6123,-17"/>
</a>
</g>
</g>
<!-- Group -->
<g id="node2" class="node">
<title>Group</title>
<text text-anchor="middle" x="27" y="-185.2" font-family="Courier,monospace" font-size="11.00" fill="#000000">Group</text>
</g>
<!-- ActionPlanTemplate&#45;&gt;Group -->
<g id="edge1" class="edge">
<title>ActionPlanTemplate:w&#45;&gt;Group:e</title>
<path fill="none" stroke="#ff99cc" d="M149.9747,-196.3603C115.3772,-195.7263 78.3967,-193.0622 54.128,-191.0093"/>
<polygon fill="#ff99cc" stroke="#ff99cc" points="156.6127,-196.4236 164.5779,-200.0998 160.6125,-196.4618 164.6123,-196.5 164.6123,-196.5 164.6123,-196.5 160.6125,-196.4618 164.6467,-192.9002 156.6127,-196.4236 156.6127,-196.4236"/>
<ellipse fill="none" stroke="#ff99cc" cx="153.4128" cy="-196.393" rx="3.2" ry="3.2"/>
<text text-anchor="middle" x="108.8062" y="-201.3015" font-family="Monaco" font-size="9.00" fill="#000000">Owner</text>
</g>
<!-- User -->
<g id="node3" class="node">
<title>User</title>
<text text-anchor="middle" x="27" y="-234.2" font-family="Courier,monospace" font-size="11.00" fill="#000000">User</text>
</g>
<!-- ActionPlanTemplate&#45;&gt;User -->
<g id="edge2" class="edge">
<title>ActionPlanTemplate:w&#45;&gt;User:e</title>
<path fill="none" stroke="#ff99cc" d="M153.2639,-205.3712C151.7303,-207.6654 149.8288,-209.9288 146.6123,-211.5 117.0157,-225.9574 79.4097,-232.4392 54.3432,-235.3033"/>
<polygon fill="#ff99cc" stroke="#ff99cc" points="158.3095,-201.427 166.8295,-199.3362 161.4609,-198.9635 164.6123,-196.5 164.6123,-196.5 164.6123,-196.5 161.4609,-198.9635 162.3951,-193.6638 158.3095,-201.427 158.3095,-201.427"/>
<ellipse fill="none" stroke="#ff99cc" cx="155.7884" cy="-203.3978" rx="3.2" ry="3.2"/>
<text text-anchor="middle" x="108.8062" y="-237.3015" font-family="Monaco" font-size="9.00" fill="#000000">Owner</text>
</g>
<!-- ActionPlanTemplate&#45;&gt;User -->
<g id="edge3" class="edge">
<title>ActionPlanTemplate:w&#45;&gt;User:e</title>
<path fill="none" stroke="#ff99cc" d="M150.2019,-145.6495C116.4723,-146.4967 99.9379,-151.6275 71,-177.4985 57.8084,-189.2921 64.605,-199.3352 54,-213.5 52.4965,-215.5082 50.8036,-217.4748 49.0173,-219.3637"/>
<polygon fill="#ff99cc" stroke="#ff99cc" points="156.6127,-145.583 164.6497,-149.0998 160.6125,-145.5415 164.6123,-145.5 164.6123,-145.5 164.6123,-145.5 160.6125,-145.5415 164.5749,-141.9002 156.6127,-145.583 156.6127,-145.583"/>
<ellipse fill="none" stroke="#ff99cc" cx="153.4129" cy="-145.6162" rx="3.2" ry="3.2"/>
<text text-anchor="middle" x="108.8062" y="-182.3015" font-family="Monaco" font-size="9.00" fill="#000000">LastModifiedBy</text>
</g>
<!-- ActionPlanTemplateVersion -->
<g id="node4" class="node">
<title>ActionPlanTemplateVersion</title>
<g id="a_node4"><a xlink:href="#" xlink:title=" ActionPlanTemplateVersion ">
<polygon fill="#ffeeff" stroke="transparent" points="1092.8281,-137.5 1092.8281,-343.5 1851.8281,-343.5 1851.8281,-137.5 1092.8281,-137.5"/>
<polygon fill="#add8e6" stroke="transparent" points="1094.3281,-325.5 1094.3281,-342.5 1851.3281,-342.5 1851.3281,-325.5 1094.3281,-325.5"/>
<polygon fill="none" stroke="#99ccff" points="1094.3281,-325.5 1094.3281,-342.5 1851.3281,-342.5 1851.3281,-325.5 1094.3281,-325.5"/>
<text text-anchor="start" x="1390.3147" y="-331.7" font-family="Courier,monospace" font-weight="bold" font-size="11.00" fill="#000000">ActionPlanTemplateVersion</text>
<polygon fill="#99ccff" stroke="transparent" points="1094.3281,-308.5 1094.3281,-325.5 1760.3281,-325.5 1760.3281,-308.5 1094.3281,-308.5"/>
<polygon fill="none" stroke="#99ccff" points="1094.3281,-308.5 1094.3281,-325.5 1760.3281,-325.5 1760.3281,-308.5 1094.3281,-308.5"/>
<text text-anchor="start" x="1097.3281" y="-314.7" font-family="Courier,monospace" font-size="11.00" fill="#000000"> &#160;&#160;&#160;&#160;&#160;&#160;&#160;&#160;&#160;&#160;&#160;&#160;&#160;&#160;&#160;&#160;&#160;&#160;&#160;&#160;&#160;&#160;&#160;&#160;&#160;&#160;&#160;&#160;&#160;&#160;&#160;&#160;&#160;&#160;&#160;&#160;&#160;&#160;&#160;&#160;&#160;&#160;</text>
<text text-anchor="start" x="1381.1743" y="-314.7" font-family="Courier,monospace" font-weight="bold" font-size="11.00" fill="#000000">Id</text>
<text text-anchor="start" x="1394.3765" y="-314.7" font-family="Courier,monospace" font-size="11.00" fill="#000000"> &#160;&#160;&#160;&#160;&#160;&#160;&#160;&#160;&#160;&#160;&#160;&#160;&#160;&#160;&#160;&#160;&#160;&#160;&#160;&#160;&#160;&#160;&#160;&#160;&#160;&#160;&#160;&#160;&#160;&#160;&#160;&#160;&#160;&#160;&#160;&#160;&#160;&#160;&#160;</text>
<polygon fill="none" stroke="#99ccff" points="1760.3281,-308.5 1760.3281,-325.5 1851.3281,-325.5 1851.3281,-308.5 1760.3281,-308.5"/>
<text text-anchor="start" x="1786.0249" y="-313.7" font-family="Courier,monospace" font-size="11.00" fill="#000000">id(18)</text>
<polygon fill="none" stroke="#99ccff" points="1094.3281,-291.5 1094.3281,-308.5 1760.3281,-308.5 1760.3281,-291.5 1094.3281,-291.5"/>
<text text-anchor="start" x="1097.3281" y="-296.7" font-family="Courier,monospace" font-size="11.00" fill="#000000"> &#160;&#160;&#160;&#160;&#160;&#160;&#160;&#160;&#160;&#160;&#160;&#160;&#160;&#160;&#160;&#160;&#160;&#160;&#160;&#160;&#160;&#160;&#160;&#160;&#160;&#160;&#160;&#160;&#160;&#160;&#160;&#160;&#160;&#160;&#160;&#160;&#160;&#160;&#160;&#160;IsDeleted &#160;&#160;&#160;&#160;&#160;&#160;&#160;&#160;&#160;&#160;&#160;&#160;&#160;&#160;&#160;&#160;&#160;&#160;&#160;&#160;&#160;&#160;&#160;&#160;&#160;&#160;&#160;&#160;&#160;&#160;&#160;&#160;&#160;&#160;&#160;&#160;&#160;&#160;</text>
<polygon fill="none" stroke="#99ccff" points="1760.3281,-291.5 1760.3281,-308.5 1851.3281,-308.5 1851.3281,-291.5 1760.3281,-291.5"/>
<text text-anchor="start" x="1782.7244" y="-296.7" font-family="Courier,monospace" font-size="11.00" fill="#000000">boolean</text>
<polygon fill="none" stroke="#99ccff" points="1094.3281,-274.5 1094.3281,-291.5 1760.3281,-291.5 1760.3281,-274.5 1094.3281,-274.5"/>
<text text-anchor="start" x="1097.3281" y="-279.7" font-family="Courier,monospace" font-size="11.00" fill="#000000"> &#160;&#160;&#160;&#160;&#160;&#160;&#160;&#160;&#160;&#160;&#160;&#160;&#160;&#160;&#160;&#160;&#160;&#160;&#160;&#160;&#160;&#160;&#160;&#160;&#160;&#160;&#160;&#160;&#160;&#160;&#160;&#160;&#160;&#160;&#160;&#160;&#160;&#160;&#160;&#160;Name &#160;&#160;&#160;&#160;&#160;&#160;&#160;&#160;&#160;&#160;&#160;&#160;&#160;&#160;&#160;&#160;&#160;&#160;&#160;&#160;&#160;&#160;&#160;&#160;&#160;&#160;&#160;&#160;&#160;&#160;&#160;&#160;&#160;&#160;&#160;&#160;&#160;&#160;</text>
<polygon fill="none" stroke="#99ccff" points="1760.3281,-274.5 1760.3281,-291.5 1851.3281,-291.5 1851.3281,-274.5 1760.3281,-274.5"/>
<text text-anchor="start" x="1769.5222" y="-279.7" font-family="Courier,monospace" font-size="11.00" fill="#000000">string(255)</text>
<polygon fill="none" stroke="#99ccff" points="1094.3281,-257.5 1094.3281,-274.5 1760.3281,-274.5 1760.3281,-257.5 1094.3281,-257.5"/>
<text text-anchor="start" x="1097.3281" y="-262.7" font-family="Courier,monospace" font-size="11.00" fill="#000000"> &#160;&#160;&#160;&#160;&#160;&#160;&#160;&#160;&#160;&#160;&#160;&#160;&#160;&#160;&#160;&#160;&#160;&#160;&#160;&#160;&#160;&#160;&#160;&#160;&#160;&#160;&#160;&#160;&#160;&#160;&#160;&#160;&#160;&#160;&#160;&#160;&#160;&#160;&#160;&#160;LastModifiedById &#160;&#160;&#160;&#160;&#160;&#160;&#160;&#160;&#160;&#160;&#160;&#160;&#160;&#160;&#160;&#160;&#160;&#160;&#160;&#160;&#160;&#160;&#160;&#160;&#160;&#160;&#160;&#160;&#160;&#160;&#160;&#160;&#160;&#160;&#160;&#160;&#160;&#160;</text>
<polygon fill="none" stroke="#99ccff" points="1760.3281,-257.5 1760.3281,-274.5 1851.3281,-274.5 1851.3281,-257.5 1760.3281,-257.5"/>
<text text-anchor="start" x="1762.9211" y="-262.7" font-family="Courier,monospace" font-size="11.00" fill="#000000">reference(18)</text>
<polygon fill="none" stroke="#99ccff" points="1094.3281,-240.5 1094.3281,-257.5 1760.3281,-257.5 1760.3281,-240.5 1094.3281,-240.5"/>
<text text-anchor="start" x="1097.3281" y="-245.7" font-family="Courier,monospace" font-size="11.00" fill="#000000"> &#160;&#160;&#160;&#160;&#160;&#160;&#160;&#160;&#160;&#160;&#160;&#160;&#160;&#160;&#160;&#160;&#160;&#160;&#160;&#160;&#160;&#160;&#160;&#160;&#160;&#160;&#160;&#160;&#160;&#160;&#160;&#160;&#160;&#160;&#160;&#160;&#160;&#160;&#160;&#160;LastViewedDate &#160;&#160;&#160;&#160;&#160;&#160;&#160;&#160;&#160;&#160;&#160;&#160;&#160;&#160;&#160;&#160;&#160;&#160;&#160;&#160;&#160;&#160;&#160;&#160;&#160;&#160;&#160;&#160;&#160;&#160;&#160;&#160;&#160;&#160;&#160;&#160;&#160;&#160;</text>
<polygon fill="none" stroke="#99ccff" points="1760.3281,-240.5 1760.3281,-257.5 1851.3281,-257.5 1851.3281,-240.5 1760.3281,-240.5"/>
<text text-anchor="start" x="1779.4238" y="-245.7" font-family="Courier,monospace" font-size="11.00" fill="#000000">datetime</text>
<polygon fill="none" stroke="#99ccff" points="1094.3281,-223.5 1094.3281,-240.5 1760.3281,-240.5 1760.3281,-223.5 1094.3281,-223.5"/>
<text text-anchor="start" x="1097.3281" y="-228.7" font-family="Courier,monospace" font-size="11.00" fill="#000000"> &#160;&#160;&#160;&#160;&#160;&#160;&#160;&#160;&#160;&#160;&#160;&#160;&#160;&#160;&#160;&#160;&#160;&#160;&#160;&#160;&#160;&#160;&#160;&#160;&#160;&#160;&#160;&#160;&#160;&#160;&#160;&#160;&#160;&#160;&#160;&#160;&#160;&#160;&#160;&#160;LastReferencedDate &#160;&#160;&#160;&#160;&#160;&#160;&#160;&#160;&#160;&#160;&#160;&#160;&#160;&#160;&#160;&#160;&#160;&#160;&#160;&#160;&#160;&#160;&#160;&#160;&#160;&#160;&#160;&#160;&#160;&#160;&#160;&#160;&#160;&#160;&#160;&#160;&#160;&#160;</text>
<polygon fill="none" stroke="#99ccff" points="1760.3281,-223.5 1760.3281,-240.5 1851.3281,-240.5 1851.3281,-223.5 1760.3281,-223.5"/>
<text text-anchor="start" x="1779.4238" y="-228.7" font-family="Courier,monospace" font-size="11.00" fill="#000000">datetime</text>
<polygon fill="none" stroke="#99ccff" points="1094.3281,-206.5 1094.3281,-223.5 1760.3281,-223.5 1760.3281,-206.5 1094.3281,-206.5"/>
<text text-anchor="start" x="1097.2744" y="-211.7" font-family="Courier,monospace" font-size="11.00" fill="#000000"> &#160;&#160;&#160;&#160;&#160;&#160;&#160;&#160;&#160;&#160;&#160;&#160;&#160;&#160;&#160;&#160;&#160;&#160;&#160;&#160;&#160;&#160;&#160;&#160;&#160;&#160;&#160;&#160;&#160;&#160;&#160;&#160;&#160;&#160;&#160;&#160;&#160;&#160;&#160;&#160;ActionPlanTemplateId &#160;&#160;&#160;&#160;&#160;&#160;&#160;&#160;&#160;&#160;&#160;&#160;&#160;&#160;&#160;&#160;&#160;&#160;&#160;&#160;&#160;&#160;&#160;&#160;&#160;&#160;&#160;&#160;&#160;&#160;&#160;&#160;&#160;&#160;&#160;&#160;&#160;&#160;</text>
<polygon fill="none" stroke="#99ccff" points="1760.3281,-206.5 1760.3281,-223.5 1851.3281,-223.5 1851.3281,-206.5 1760.3281,-206.5"/>
<text text-anchor="start" x="1762.9211" y="-211.7" font-family="Courier,monospace" font-size="11.00" fill="#000000">reference(18)</text>
<polygon fill="none" stroke="#99ccff" points="1094.3281,-189.5 1094.3281,-206.5 1760.3281,-206.5 1760.3281,-189.5 1094.3281,-189.5"/>
<text text-anchor="start" x="1097.3281" y="-194.7" font-family="Courier,monospace" font-size="11.00" fill="#000000"> &#160;&#160;&#160;&#160;&#160;&#160;&#160;&#160;&#160;&#160;&#160;&#160;&#160;&#160;&#160;&#160;&#160;&#160;&#160;&#160;&#160;&#160;&#160;&#160;&#160;&#160;&#160;&#160;&#160;&#160;&#160;&#160;&#160;&#160;&#160;&#160;&#160;&#160;&#160;&#160;Version &#160;&#160;&#160;&#160;&#160;&#160;&#160;&#160;&#160;&#160;&#160;&#160;&#160;&#160;&#160;&#160;&#160;&#160;&#160;&#160;&#160;&#160;&#160;&#160;&#160;&#160;&#160;&#160;&#160;&#160;&#160;&#160;&#160;&#160;&#160;&#160;&#160;&#160;</text>
<polygon fill="none" stroke="#99ccff" points="1760.3281,-189.5 1760.3281,-206.5 1851.3281,-206.5 1851.3281,-189.5 1760.3281,-189.5"/>
<text text-anchor="start" x="1795.9265" y="-194.7" font-family="Courier,monospace" font-size="11.00" fill="#000000">int</text>
<polygon fill="none" stroke="#99ccff" points="1094.3281,-172.5 1094.3281,-189.5 1760.3281,-189.5 1760.3281,-172.5 1094.3281,-172.5"/>
<text text-anchor="start" x="1097.3281" y="-177.7" font-family="Courier,monospace" font-size="11.00" fill="#000000"> &#160;&#160;&#160;&#160;&#160;&#160;&#160;&#160;&#160;&#160;&#160;&#160;&#160;&#160;&#160;&#160;&#160;&#160;&#160;&#160;&#160;&#160;&#160;&#160;&#160;&#160;&#160;&#160;&#160;&#160;&#160;&#160;&#160;&#160;&#160;&#160;&#160;&#160;&#160;&#160;Status &#160;&#160;&#160;&#160;&#160;&#160;&#160;&#160;&#160;&#160;&#160;&#160;&#160;&#160;&#160;&#160;&#160;&#160;&#160;&#160;&#160;&#160;&#160;&#160;&#160;&#160;&#160;&#160;&#160;&#160;&#160;&#160;&#160;&#160;&#160;&#160;&#160;&#160;</text>
<polygon fill="none" stroke="#99ccff" points="1760.3281,-172.5 1760.3281,-189.5 1851.3281,-189.5 1851.3281,-172.5 1760.3281,-172.5"/>
<text text-anchor="start" x="1762.9211" y="-177.7" font-family="Courier,monospace" font-size="11.00" fill="#000000">picklist(255)</text>
<polygon fill="none" stroke="#99ccff" points="1094.3281,-155.5 1094.3281,-172.5 1760.3281,-172.5 1760.3281,-155.5 1094.3281,-155.5"/>
<text text-anchor="start" x="1097.3281" y="-160.7" font-family="Courier,monospace" font-size="11.00" fill="#000000"> &#160;&#160;&#160;&#160;&#160;&#160;&#160;&#160;&#160;&#160;&#160;&#160;&#160;&#160;&#160;&#160;&#160;&#160;&#160;&#160;&#160;&#160;&#160;&#160;&#160;&#160;&#160;&#160;&#160;&#160;&#160;&#160;&#160;&#160;&#160;&#160;&#160;&#160;&#160;&#160;ActivationDateTime &#160;&#160;&#160;&#160;&#160;&#160;&#160;&#160;&#160;&#160;&#160;&#160;&#160;&#160;&#160;&#160;&#160;&#160;&#160;&#160;&#160;&#160;&#160;&#160;&#160;&#160;&#160;&#160;&#160;&#160;&#160;&#160;&#160;&#160;&#160;&#160;&#160;&#160;</text>
<polygon fill="none" stroke="#99ccff" points="1760.3281,-155.5 1760.3281,-172.5 1851.3281,-172.5 1851.3281,-155.5 1760.3281,-155.5"/>
<text text-anchor="start" x="1779.4238" y="-160.7" font-family="Courier,monospace" font-size="11.00" fill="#000000">datetime</text>
<polygon fill="none" stroke="#99ccff" points="1094.3281,-138.5 1094.3281,-155.5 1760.3281,-155.5 1760.3281,-138.5 1094.3281,-138.5"/>
<text text-anchor="start" x="1097.2744" y="-143.7" font-family="Courier,monospace" font-size="11.00" fill="#000000"> &#160;&#160;&#160;&#160;&#160;&#160;&#160;&#160;&#160;&#160;&#160;&#160;&#160;&#160;&#160;&#160;&#160;&#160;&#160;&#160;&#160;&#160;&#160;&#160;&#160;&#160;&#160;&#160;&#160;&#160;&#160;&#160;&#160;&#160;&#160;&#160;&#160;&#160;&#160;&#160;InactivationDateTime &#160;&#160;&#160;&#160;&#160;&#160;&#160;&#160;&#160;&#160;&#160;&#160;&#160;&#160;&#160;&#160;&#160;&#160;&#160;&#160;&#160;&#160;&#160;&#160;&#160;&#160;&#160;&#160;&#160;&#160;&#160;&#160;&#160;&#160;&#160;&#160;&#160;&#160;</text>
<polygon fill="none" stroke="#99ccff" points="1760.3281,-138.5 1760.3281,-155.5 1851.3281,-155.5 1851.3281,-138.5 1760.3281,-138.5"/>
<text text-anchor="start" x="1779.4238" y="-143.7" font-family="Courier,monospace" font-size="11.00" fill="#000000">datetime</text>
<polygon fill="none" stroke="#99ccff" points="1092.8281,-137.5 1092.8281,-343.5 1851.8281,-343.5 1851.8281,-137.5 1092.8281,-137.5"/>
</a>
</g>
</g>
<!-- ActionPlanTemplateVersion&#45;&gt;ActionPlanTemplate -->
<g id="edge5" class="edge">
<title>ActionPlanTemplateVersion:w&#45;&gt;ActionPlanTemplate:e</title>
<path fill="none" stroke="#ff99cc" d="M1079.6727,-214.4925C991.7246,-214.401 964.4152,-213.5 869.6123,-213.5"/>
<polygon fill="#ff99cc" stroke="#ff99cc" points="1086.3281,-214.4959 1094.3263,-218.1 1090.3281,-214.4979 1094.3281,-214.5 1094.3281,-214.5 1094.3281,-214.5 1090.3281,-214.4979 1094.33,-210.9 1086.3281,-214.4959 1086.3281,-214.4959"/>
<ellipse fill="none" stroke="#ff99cc" cx="1083.1281" cy="-214.4942" rx="3.2" ry="3.2"/>
<text text-anchor="middle" x="1027.2202" y="-218.3015" font-family="Monaco" font-size="9.00" fill="#000000">ActionPlanTemplate</text>
</g>
<!-- ActionPlanTemplateVersion&#45;&gt;User -->
<g id="edge4" class="edge">
<title>ActionPlanTemplateVersion:w&#45;&gt;User:e</title>
<path fill="none" stroke="#ff99cc" d="M1079.7847,-266.5123C636.8877,-267.2612 517.713,-301.827 71,-247.5 65.5565,-246.838 59.8002,-245.7903 54.309,-244.6174"/>
<polygon fill="#ff99cc" stroke="#ff99cc" points="1086.3281,-266.5068 1094.3312,-270.1 1090.3281,-266.5034 1094.3281,-266.5 1094.3281,-266.5 1094.3281,-266.5 1090.3281,-266.5034 1094.3251,-262.9 1086.3281,-266.5068 1086.3281,-266.5068"/>
<ellipse fill="none" stroke="#ff99cc" cx="1083.1281" cy="-266.5095" rx="3.2" ry="3.2"/>
<text text-anchor="middle" x="562.6123" y="-282.3015" font-family="Monaco" font-size="9.00" fill="#000000">LastModifiedBy</text>
</g>
</g>
</svg>
